<mxfile host="app.diagrams.net" modified="2023-03-15T11:30:36.281Z" agent="5.0 (Macintosh; Intel Mac OS X 10_15_7) AppleWebKit/605.1.15 (KHTML, like Gecko) Version/16.3 Safari/605.1.15" etag="funo05aWMp1kmDafQA5Y" version="21.0.6" type="github" pages="4">
  <diagram name="科大機房接線圖" id="EnV_v2CRgRRoNaX9nsnr">
    <mxGraphModel dx="1233" dy="785" grid="1" gridSize="10" guides="1" tooltips="1" connect="1" arrows="1" fold="1" page="1" pageScale="1" pageWidth="1169" pageHeight="827" math="0" shadow="0">
      <root>
        <mxCell id="0" />
        <mxCell id="1" parent="0" />
        <mxCell id="QG3njpApabE2xOxbRWIo-63" value="" style="rounded=1;whiteSpace=wrap;html=1;dashed=1;" parent="1" vertex="1">
          <mxGeometry x="390.86" y="340" width="288" height="60" as="geometry" />
        </mxCell>
        <mxCell id="QG3njpApabE2xOxbRWIo-62" value="" style="rounded=1;whiteSpace=wrap;html=1;dashed=1;" parent="1" vertex="1">
          <mxGeometry x="122" y="220" width="288" height="60" as="geometry" />
        </mxCell>
        <mxCell id="T2MTODWsydNZWaB3jhXt-1" value="Aruba&lt;br&gt;8325-32-it A" style="rounded=1;whiteSpace=wrap;html=1;fontColor=#FFFFFF;fillColor=#008cb4;" parent="1" vertex="1">
          <mxGeometry x="130" y="230" width="120" height="40" as="geometry" />
        </mxCell>
        <mxCell id="T2MTODWsydNZWaB3jhXt-2" value="1" style="rounded=0;whiteSpace=wrap;html=1;" parent="1" vertex="1">
          <mxGeometry x="150" y="264" width="13" height="13" as="geometry" />
        </mxCell>
        <mxCell id="T2MTODWsydNZWaB3jhXt-4" value="2" style="rounded=0;whiteSpace=wrap;html=1;" parent="1" vertex="1">
          <mxGeometry x="170" y="264" width="13" height="13" as="geometry" />
        </mxCell>
        <mxCell id="T2MTODWsydNZWaB3jhXt-5" value="3" style="rounded=0;whiteSpace=wrap;html=1;" parent="1" vertex="1">
          <mxGeometry x="190" y="264" width="13" height="13" as="geometry" />
        </mxCell>
        <mxCell id="T2MTODWsydNZWaB3jhXt-6" value="Aruba&lt;br&gt;8325-32-it B" style="rounded=1;whiteSpace=wrap;html=1;fillColor=#008cb4;fontColor=#ffffff;" parent="1" vertex="1">
          <mxGeometry x="280" y="230" width="120" height="40" as="geometry" />
        </mxCell>
        <mxCell id="T2MTODWsydNZWaB3jhXt-7" value="1" style="rounded=0;whiteSpace=wrap;html=1;" parent="1" vertex="1">
          <mxGeometry x="300" y="265" width="13" height="13" as="geometry" />
        </mxCell>
        <mxCell id="T2MTODWsydNZWaB3jhXt-8" value="2" style="rounded=0;whiteSpace=wrap;html=1;" parent="1" vertex="1">
          <mxGeometry x="320" y="265" width="13" height="13" as="geometry" />
        </mxCell>
        <mxCell id="T2MTODWsydNZWaB3jhXt-9" value="3" style="rounded=0;whiteSpace=wrap;html=1;" parent="1" vertex="1">
          <mxGeometry x="340" y="265" width="13" height="13" as="geometry" />
        </mxCell>
        <mxCell id="T2MTODWsydNZWaB3jhXt-10" value="100G" style="endArrow=none;html=1;rounded=0;entryX=0.5;entryY=1;entryDx=0;entryDy=0;exitX=0.5;exitY=0;exitDx=0;exitDy=0;strokeWidth=2;" parent="1" source="T2MTODWsydNZWaB3jhXt-32" target="T2MTODWsydNZWaB3jhXt-2" edge="1">
          <mxGeometry width="50" height="50" relative="1" as="geometry">
            <mxPoint x="110" y="325" as="sourcePoint" />
            <mxPoint x="160" y="275" as="targetPoint" />
            <Array as="points" />
          </mxGeometry>
        </mxCell>
        <mxCell id="T2MTODWsydNZWaB3jhXt-15" value="" style="endArrow=none;html=1;rounded=0;exitX=1;exitY=0.75;exitDx=0;exitDy=0;entryX=0;entryY=0.75;entryDx=0;entryDy=0;strokeColor=#009900;strokeWidth=2;" parent="1" source="T2MTODWsydNZWaB3jhXt-1" target="T2MTODWsydNZWaB3jhXt-6" edge="1">
          <mxGeometry width="50" height="50" relative="1" as="geometry">
            <mxPoint x="310" y="430" as="sourcePoint" />
            <mxPoint x="360" y="380" as="targetPoint" />
          </mxGeometry>
        </mxCell>
        <mxCell id="T2MTODWsydNZWaB3jhXt-16" value="" style="endArrow=none;html=1;rounded=0;exitX=1;exitY=0.5;exitDx=0;exitDy=0;strokeColor=#009900;strokeWidth=2;" parent="1" source="T2MTODWsydNZWaB3jhXt-1" target="T2MTODWsydNZWaB3jhXt-6" edge="1">
          <mxGeometry width="50" height="50" relative="1" as="geometry">
            <mxPoint x="320" y="430" as="sourcePoint" />
            <mxPoint x="370" y="380" as="targetPoint" />
          </mxGeometry>
        </mxCell>
        <mxCell id="T2MTODWsydNZWaB3jhXt-17" value="" style="endArrow=none;dashed=1;html=1;rounded=0;exitX=1;exitY=0.25;exitDx=0;exitDy=0;entryX=0;entryY=0.25;entryDx=0;entryDy=0;strokeColor=#009900;" parent="1" source="T2MTODWsydNZWaB3jhXt-1" target="T2MTODWsydNZWaB3jhXt-6" edge="1">
          <mxGeometry width="50" height="50" relative="1" as="geometry">
            <mxPoint x="320" y="430" as="sourcePoint" />
            <mxPoint x="370" y="380" as="targetPoint" />
          </mxGeometry>
        </mxCell>
        <mxCell id="T2MTODWsydNZWaB3jhXt-20" value="Aruba&lt;br&gt;8325-48-it A" style="rounded=1;whiteSpace=wrap;html=1;fontColor=#FFFFFF;fillColor=#008cb4;" parent="1" vertex="1">
          <mxGeometry x="50" y="348.71" width="120" height="41.29" as="geometry" />
        </mxCell>
        <mxCell id="T2MTODWsydNZWaB3jhXt-24" value="Aruba&lt;br&gt;8325-48-it B" style="rounded=1;whiteSpace=wrap;html=1;fillColor=#008cb4;fontColor=#ffffff;" parent="1" vertex="1">
          <mxGeometry x="200" y="348.71" width="120" height="41.29" as="geometry" />
        </mxCell>
        <mxCell id="T2MTODWsydNZWaB3jhXt-32" value="1" style="rounded=0;whiteSpace=wrap;html=1;" parent="1" vertex="1">
          <mxGeometry x="90" y="339.71" width="13" height="13" as="geometry" />
        </mxCell>
        <mxCell id="T2MTODWsydNZWaB3jhXt-33" value="2" style="rounded=0;whiteSpace=wrap;html=1;" parent="1" vertex="1">
          <mxGeometry x="110" y="339.71" width="13" height="13" as="geometry" />
        </mxCell>
        <mxCell id="QG3njpApabE2xOxbRWIo-1" value="1" style="rounded=0;whiteSpace=wrap;html=1;" parent="1" vertex="1">
          <mxGeometry x="245" y="341.71" width="13" height="13" as="geometry" />
        </mxCell>
        <mxCell id="QG3njpApabE2xOxbRWIo-2" value="2" style="rounded=0;whiteSpace=wrap;html=1;" parent="1" vertex="1">
          <mxGeometry x="265" y="341.71" width="13" height="13" as="geometry" />
        </mxCell>
        <mxCell id="QG3njpApabE2xOxbRWIo-3" value="100G" style="endArrow=none;html=1;rounded=0;entryX=0.5;entryY=1;entryDx=0;entryDy=0;exitX=0.5;exitY=0;exitDx=0;exitDy=0;strokeWidth=2;" parent="1" source="T2MTODWsydNZWaB3jhXt-33" target="T2MTODWsydNZWaB3jhXt-7" edge="1">
          <mxGeometry x="0.2955" width="50" height="50" relative="1" as="geometry">
            <mxPoint x="140" y="410" as="sourcePoint" />
            <mxPoint x="165" y="285" as="targetPoint" />
            <Array as="points" />
            <mxPoint y="1" as="offset" />
          </mxGeometry>
        </mxCell>
        <mxCell id="QG3njpApabE2xOxbRWIo-4" value="100G" style="endArrow=none;html=1;rounded=0;entryX=0.5;entryY=1;entryDx=0;entryDy=0;exitX=0.25;exitY=0;exitDx=0;exitDy=0;strokeWidth=2;" parent="1" source="QG3njpApabE2xOxbRWIo-1" target="T2MTODWsydNZWaB3jhXt-4" edge="1">
          <mxGeometry x="0.2971" y="1" width="50" height="50" relative="1" as="geometry">
            <mxPoint x="140" y="436" as="sourcePoint" />
            <mxPoint x="175" y="295" as="targetPoint" />
            <Array as="points" />
            <mxPoint as="offset" />
          </mxGeometry>
        </mxCell>
        <mxCell id="QG3njpApabE2xOxbRWIo-5" value="100G" style="endArrow=none;html=1;rounded=0;entryX=0.25;entryY=1;entryDx=0;entryDy=0;exitX=0.5;exitY=0;exitDx=0;exitDy=0;strokeWidth=2;" parent="1" source="QG3njpApabE2xOxbRWIo-2" target="T2MTODWsydNZWaB3jhXt-8" edge="1">
          <mxGeometry x="0.5531" y="1" width="50" height="50" relative="1" as="geometry">
            <mxPoint x="150" y="446" as="sourcePoint" />
            <mxPoint x="185" y="305" as="targetPoint" />
            <Array as="points" />
            <mxPoint as="offset" />
          </mxGeometry>
        </mxCell>
        <mxCell id="QG3njpApabE2xOxbRWIo-6" value="" style="ellipse;whiteSpace=wrap;html=1;rotation=15;fillColor=none;" parent="1" vertex="1">
          <mxGeometry x="99.66" y="321.32" width="50.17" height="15" as="geometry" />
        </mxCell>
        <mxCell id="QG3njpApabE2xOxbRWIo-8" value="" style="ellipse;whiteSpace=wrap;html=1;rotation=0;fillColor=none;" parent="1" vertex="1">
          <mxGeometry x="227.5" y="321.32" width="62.5" height="15" as="geometry" />
        </mxCell>
        <mxCell id="QG3njpApabE2xOxbRWIo-9" value="Aruba&lt;br&gt;8325-48-it C" style="rounded=1;whiteSpace=wrap;html=1;fontColor=#FFFFFF;fillColor=#008cb4;" parent="1" vertex="1">
          <mxGeometry x="400" y="348.71" width="120" height="40" as="geometry" />
        </mxCell>
        <mxCell id="QG3njpApabE2xOxbRWIo-13" value="Aruba&lt;br&gt;8325-48-it D" style="rounded=1;whiteSpace=wrap;html=1;fillColor=#008cb4;fontColor=#ffffff;" parent="1" vertex="1">
          <mxGeometry x="550" y="348.71" width="120" height="40" as="geometry" />
        </mxCell>
        <mxCell id="QG3njpApabE2xOxbRWIo-17" value="" style="endArrow=none;html=1;rounded=0;exitX=1;exitY=0.75;exitDx=0;exitDy=0;entryX=0;entryY=0.75;entryDx=0;entryDy=0;strokeColor=#009900;strokeWidth=2;" parent="1" source="QG3njpApabE2xOxbRWIo-9" target="QG3njpApabE2xOxbRWIo-13" edge="1">
          <mxGeometry width="50" height="50" relative="1" as="geometry">
            <mxPoint x="580" y="548.71" as="sourcePoint" />
            <mxPoint x="630" y="498.71" as="targetPoint" />
          </mxGeometry>
        </mxCell>
        <mxCell id="QG3njpApabE2xOxbRWIo-18" value="" style="endArrow=none;html=1;rounded=0;exitX=1;exitY=0.5;exitDx=0;exitDy=0;strokeColor=#009900;strokeWidth=2;" parent="1" source="QG3njpApabE2xOxbRWIo-9" target="QG3njpApabE2xOxbRWIo-13" edge="1">
          <mxGeometry width="50" height="50" relative="1" as="geometry">
            <mxPoint x="590" y="548.71" as="sourcePoint" />
            <mxPoint x="640" y="498.71" as="targetPoint" />
          </mxGeometry>
        </mxCell>
        <mxCell id="QG3njpApabE2xOxbRWIo-19" value="" style="endArrow=none;dashed=1;html=1;rounded=0;exitX=1;exitY=0.25;exitDx=0;exitDy=0;entryX=0;entryY=0.25;entryDx=0;entryDy=0;strokeColor=#009900;" parent="1" edge="1">
          <mxGeometry width="50" height="50" relative="1" as="geometry">
            <mxPoint x="520" y="355.71000000000004" as="sourcePoint" />
            <mxPoint x="550" y="355.71000000000004" as="targetPoint" />
            <Array as="points">
              <mxPoint x="540" y="357" />
            </Array>
          </mxGeometry>
        </mxCell>
        <mxCell id="QG3njpApabE2xOxbRWIo-20" value="" style="ellipse;whiteSpace=wrap;html=1;rotation=90;fillColor=none;strokeColor=#009900;" parent="1" vertex="1">
          <mxGeometry x="524.86" y="368.86" width="20" height="8.71" as="geometry" />
        </mxCell>
        <mxCell id="QG3njpApabE2xOxbRWIo-21" value="1" style="rounded=0;whiteSpace=wrap;html=1;" parent="1" vertex="1">
          <mxGeometry x="605" y="341.71" width="13" height="13" as="geometry" />
        </mxCell>
        <mxCell id="QG3njpApabE2xOxbRWIo-22" value="1" style="rounded=0;whiteSpace=wrap;html=1;" parent="1" vertex="1">
          <mxGeometry x="450" y="341.71" width="13" height="13" as="geometry" />
        </mxCell>
        <mxCell id="QG3njpApabE2xOxbRWIo-24" value="100G" style="endArrow=none;html=1;rounded=0;exitX=0.5;exitY=1;exitDx=0;exitDy=0;entryX=0.25;entryY=0;entryDx=0;entryDy=0;strokeWidth=2;" parent="1" source="T2MTODWsydNZWaB3jhXt-5" target="QG3njpApabE2xOxbRWIo-22" edge="1">
          <mxGeometry width="50" height="50" relative="1" as="geometry">
            <mxPoint x="360" y="430" as="sourcePoint" />
            <mxPoint x="410" y="380" as="targetPoint" />
          </mxGeometry>
        </mxCell>
        <mxCell id="QG3njpApabE2xOxbRWIo-25" value="100G" style="endArrow=none;html=1;rounded=0;entryX=0.5;entryY=1;entryDx=0;entryDy=0;exitX=0.5;exitY=0;exitDx=0;exitDy=0;strokeWidth=2;" parent="1" source="QG3njpApabE2xOxbRWIo-21" target="T2MTODWsydNZWaB3jhXt-9" edge="1">
          <mxGeometry width="50" height="50" relative="1" as="geometry">
            <mxPoint x="360" y="430" as="sourcePoint" />
            <mxPoint x="410" y="380" as="targetPoint" />
          </mxGeometry>
        </mxCell>
        <mxCell id="QG3njpApabE2xOxbRWIo-28" value="" style="ellipse;whiteSpace=wrap;html=1;rotation=-45;fillColor=none;" parent="1" vertex="1">
          <mxGeometry x="407.5" y="310" width="62.5" height="15" as="geometry" />
        </mxCell>
        <mxCell id="QG3njpApabE2xOxbRWIo-29" value="" style="rounded=1;whiteSpace=wrap;html=1;" parent="1" vertex="1">
          <mxGeometry x="60" y="446" width="260" height="70" as="geometry" />
        </mxCell>
        <mxCell id="QG3njpApabE2xOxbRWIo-30" value="" style="rounded=1;whiteSpace=wrap;html=1;" parent="1" vertex="1">
          <mxGeometry x="50" y="436" width="260" height="70" as="geometry" />
        </mxCell>
        <mxCell id="QG3njpApabE2xOxbRWIo-33" value="x" style="rounded=0;whiteSpace=wrap;html=1;" parent="1" vertex="1">
          <mxGeometry x="241.75" y="383.71" width="13" height="13" as="geometry" />
        </mxCell>
        <mxCell id="QG3njpApabE2xOxbRWIo-34" value="x" style="rounded=0;whiteSpace=wrap;html=1;" parent="1" vertex="1">
          <mxGeometry x="100" y="383.71" width="13" height="13" as="geometry" />
        </mxCell>
        <mxCell id="QG3njpApabE2xOxbRWIo-35" value="25G" style="endArrow=none;html=1;rounded=0;entryX=0.5;entryY=1;entryDx=0;entryDy=0;exitX=0.5;exitY=0;exitDx=0;exitDy=0;" parent="1" source="QG3njpApabE2xOxbRWIo-32" target="QG3njpApabE2xOxbRWIo-33" edge="1">
          <mxGeometry width="50" height="50" relative="1" as="geometry">
            <mxPoint x="270" y="420" as="sourcePoint" />
            <mxPoint x="320" y="370" as="targetPoint" />
          </mxGeometry>
        </mxCell>
        <mxCell id="QG3njpApabE2xOxbRWIo-36" value="25G" style="endArrow=none;html=1;rounded=0;entryX=0.5;entryY=1;entryDx=0;entryDy=0;exitX=0.5;exitY=0;exitDx=0;exitDy=0;" parent="1" edge="1" target="QG3njpApabE2xOxbRWIo-34" source="QG3njpApabE2xOxbRWIo-31">
          <mxGeometry x="0.0148" width="50" height="50" relative="1" as="geometry">
            <mxPoint x="119.71000000000001" y="429.71" as="sourcePoint" />
            <mxPoint x="119.71000000000001" y="393.71" as="targetPoint" />
            <mxPoint as="offset" />
          </mxGeometry>
        </mxCell>
        <mxCell id="QG3njpApabE2xOxbRWIo-39" value="" style="rounded=1;whiteSpace=wrap;html=1;fillColor=#CCCCFF;" parent="1" vertex="1">
          <mxGeometry x="60" y="439" width="240" height="29" as="geometry" />
        </mxCell>
        <mxCell id="QG3njpApabE2xOxbRWIo-42" value="" style="ellipse;whiteSpace=wrap;html=1;rotation=90;fillColor=none;strokeColor=#009900;" parent="1" vertex="1">
          <mxGeometry x="253.75" y="250.29000000000002" width="20" height="8.71" as="geometry" />
        </mxCell>
        <mxCell id="QG3njpApabE2xOxbRWIo-44" value="port group 1" style="rounded=1;whiteSpace=wrap;html=1;" parent="1" vertex="1">
          <mxGeometry x="64.75" y="443" width="75.25" height="22" as="geometry" />
        </mxCell>
        <mxCell id="QG3njpApabE2xOxbRWIo-45" value="port group 2" style="rounded=1;whiteSpace=wrap;html=1;" parent="1" vertex="1">
          <mxGeometry x="142.38" y="443" width="75.25" height="22" as="geometry" />
        </mxCell>
        <mxCell id="QG3njpApabE2xOxbRWIo-46" value="port group 2" style="rounded=1;whiteSpace=wrap;html=1;" parent="1" vertex="1">
          <mxGeometry x="221.13" y="443" width="75.25" height="22" as="geometry" />
        </mxCell>
        <mxCell id="QG3njpApabE2xOxbRWIo-31" value="vnic5" style="rounded=0;whiteSpace=wrap;html=1;" parent="1" vertex="1">
          <mxGeometry x="90" y="427" width="35" height="14" as="geometry" />
        </mxCell>
        <mxCell id="QG3njpApabE2xOxbRWIo-32" value="vnic7" style="rounded=0;whiteSpace=wrap;html=1;" parent="1" vertex="1">
          <mxGeometry x="230" y="427" width="34" height="14" as="geometry" />
        </mxCell>
        <mxCell id="QG3njpApabE2xOxbRWIo-48" value="" style="sketch=0;pointerEvents=1;shadow=0;dashed=0;html=1;strokeColor=none;fillColor=#434445;aspect=fixed;labelPosition=center;verticalLabelPosition=bottom;verticalAlign=top;align=center;outlineConnect=0;shape=mxgraph.vvd.vm_group;" parent="1" vertex="1">
          <mxGeometry x="69.96000000000001" y="473" width="29.7" height="30" as="geometry" />
        </mxCell>
        <mxCell id="QG3njpApabE2xOxbRWIo-49" value="" style="sketch=0;pointerEvents=1;shadow=0;dashed=0;html=1;strokeColor=none;fillColor=#434445;aspect=fixed;labelPosition=center;verticalLabelPosition=bottom;verticalAlign=top;align=center;outlineConnect=0;shape=mxgraph.vvd.vm_group;" parent="1" vertex="1">
          <mxGeometry x="105" y="473" width="29.7" height="30" as="geometry" />
        </mxCell>
        <mxCell id="QG3njpApabE2xOxbRWIo-50" value="" style="sketch=0;pointerEvents=1;shadow=0;dashed=0;html=1;strokeColor=none;fillColor=#434445;aspect=fixed;labelPosition=center;verticalLabelPosition=bottom;verticalAlign=top;align=center;outlineConnect=0;shape=mxgraph.vvd.vm_group;" parent="1" vertex="1">
          <mxGeometry x="140" y="473" width="29.7" height="30" as="geometry" />
        </mxCell>
        <mxCell id="QG3njpApabE2xOxbRWIo-57" value="Cisco ASR 9K" style="rounded=1;whiteSpace=wrap;html=1;fontColor=#FFFFFF;fillColor=#009900;" parent="1" vertex="1">
          <mxGeometry x="474.86" y="460" width="120" height="40" as="geometry" />
        </mxCell>
        <mxCell id="QG3njpApabE2xOxbRWIo-69" value="To 三峽機房&lt;br&gt;裸光設備" style="rounded=1;whiteSpace=wrap;html=1;fontColor=#FFFFFF;fillColor=#009900;" parent="1" vertex="1">
          <mxGeometry x="529.86" y="228" width="110.14" height="40" as="geometry" />
        </mxCell>
        <mxCell id="QG3njpApabE2xOxbRWIo-70" value="48" style="rounded=0;whiteSpace=wrap;html=1;" parent="1" vertex="1">
          <mxGeometry x="394" y="245" width="13" height="13" as="geometry" />
        </mxCell>
        <mxCell id="QG3njpApabE2xOxbRWIo-71" value="x" style="rounded=0;whiteSpace=wrap;html=1;" parent="1" vertex="1">
          <mxGeometry x="524.86" y="245" width="13" height="13" as="geometry" />
        </mxCell>
        <mxCell id="QG3njpApabE2xOxbRWIo-72" value="10G" style="endArrow=none;html=1;rounded=0;entryX=1;entryY=0.5;entryDx=0;entryDy=0;exitX=0;exitY=0.5;exitDx=0;exitDy=0;" parent="1" source="QG3njpApabE2xOxbRWIo-71" target="QG3njpApabE2xOxbRWIo-70" edge="1">
          <mxGeometry width="50" height="50" relative="1" as="geometry">
            <mxPoint x="250" y="320" as="sourcePoint" />
            <mxPoint x="300" y="270" as="targetPoint" />
          </mxGeometry>
        </mxCell>
        <mxCell id="A4Iwmnf6_axXiIFtWJAd-1" value="" style="endArrow=none;html=1;rounded=0;" parent="1" edge="1">
          <mxGeometry x="-70" y="245" width="50" height="50" relative="1" as="geometry">
            <mxPoint x="50" y="36" as="sourcePoint" />
            <mxPoint x="90" y="36" as="targetPoint" />
            <Array as="points">
              <mxPoint x="110" y="36" />
            </Array>
          </mxGeometry>
        </mxCell>
        <mxCell id="A4Iwmnf6_axXiIFtWJAd-2" value="&amp;nbsp;Num G" style="edgeLabel;html=1;align=center;verticalAlign=middle;resizable=0;points=[];" parent="A4Iwmnf6_axXiIFtWJAd-1" connectable="0" vertex="1">
          <mxGeometry x="0.1625" y="1" relative="1" as="geometry">
            <mxPoint x="-21" as="offset" />
          </mxGeometry>
        </mxCell>
        <mxCell id="A4Iwmnf6_axXiIFtWJAd-3" value="" style="endArrow=none;dashed=1;html=1;rounded=0;strokeColor=#009900;" parent="1" edge="1">
          <mxGeometry width="50" height="50" relative="1" as="geometry">
            <mxPoint x="45" y="78.5" as="sourcePoint" />
            <mxPoint x="105" y="78.5" as="targetPoint" />
            <Array as="points">
              <mxPoint x="85" y="78.5" />
            </Array>
          </mxGeometry>
        </mxCell>
        <mxCell id="A4Iwmnf6_axXiIFtWJAd-4" value="" style="rounded=0;whiteSpace=wrap;html=1;" parent="1" vertex="1">
          <mxGeometry x="255.23000000000002" y="32.5" width="10" height="10" as="geometry" />
        </mxCell>
        <mxCell id="A4Iwmnf6_axXiIFtWJAd-5" value="" style="ellipse;whiteSpace=wrap;html=1;aspect=fixed;" parent="1" vertex="1">
          <mxGeometry x="255.23000000000002" y="52.5" width="10" height="10" as="geometry" />
        </mxCell>
        <mxCell id="A4Iwmnf6_axXiIFtWJAd-6" value="一般資料傳輸" style="text;html=1;align=center;verticalAlign=middle;resizable=0;points=[];autosize=1;strokeColor=none;fillColor=none;" parent="1" vertex="1">
          <mxGeometry x="110" y="20" width="100" height="30" as="geometry" />
        </mxCell>
        <mxCell id="A4Iwmnf6_axXiIFtWJAd-7" value="VSX Keepalive" style="text;html=1;align=center;verticalAlign=middle;resizable=0;points=[];autosize=1;strokeColor=none;fillColor=none;" parent="1" vertex="1">
          <mxGeometry x="119" y="64" width="100" height="30" as="geometry" />
        </mxCell>
        <mxCell id="A4Iwmnf6_axXiIFtWJAd-8" value="Trunk Port" style="text;html=1;align=center;verticalAlign=middle;resizable=0;points=[];autosize=1;strokeColor=none;fillColor=none;" parent="1" vertex="1">
          <mxGeometry x="309.33" y="22.5" width="80" height="30" as="geometry" />
        </mxCell>
        <mxCell id="A4Iwmnf6_axXiIFtWJAd-9" value="Route Port" style="text;html=1;align=center;verticalAlign=middle;resizable=0;points=[];autosize=1;strokeColor=none;fillColor=none;" parent="1" vertex="1">
          <mxGeometry x="309.37" y="41.5" width="80" height="30" as="geometry" />
        </mxCell>
        <mxCell id="A4Iwmnf6_axXiIFtWJAd-10" value="" style="ellipse;whiteSpace=wrap;html=1;rotation=0;fillColor=none;" parent="1" vertex="1">
          <mxGeometry x="236.87" y="71.5" width="62.5" height="15" as="geometry" />
        </mxCell>
        <mxCell id="A4Iwmnf6_axXiIFtWJAd-11" value="EtherChannel" style="text;html=1;align=center;verticalAlign=middle;resizable=0;points=[];autosize=1;strokeColor=none;fillColor=none;" parent="1" vertex="1">
          <mxGeometry x="307" y="64" width="100" height="30" as="geometry" />
        </mxCell>
        <mxCell id="A4Iwmnf6_axXiIFtWJAd-12" value="" style="endArrow=none;html=1;rounded=0;exitX=1;exitY=0.75;exitDx=0;exitDy=0;strokeColor=#009900;strokeWidth=2;" parent="1" edge="1">
          <mxGeometry width="50" height="50" relative="1" as="geometry">
            <mxPoint x="47.5" y="60" as="sourcePoint" />
            <mxPoint x="110" y="60" as="targetPoint" />
          </mxGeometry>
        </mxCell>
        <mxCell id="A4Iwmnf6_axXiIFtWJAd-13" value="VSX Peer Link" style="text;html=1;align=center;verticalAlign=middle;resizable=0;points=[];autosize=1;strokeColor=none;fillColor=none;" parent="1" vertex="1">
          <mxGeometry x="117.62999999999998" y="45" width="100" height="30" as="geometry" />
        </mxCell>
        <mxCell id="TJa9ObyF46NKCLbVQbv8-9" value="10G" style="endArrow=none;html=1;rounded=0;entryX=0.5;entryY=1;entryDx=0;entryDy=0;exitX=0.5;exitY=0;exitDx=0;exitDy=0;" parent="1" source="TJa9ObyF46NKCLbVQbv8-16" target="TJa9ObyF46NKCLbVQbv8-13" edge="1">
          <mxGeometry width="50" height="50" relative="1" as="geometry">
            <mxPoint x="518" y="456" as="sourcePoint" />
            <mxPoint x="498" y="394.71000000000004" as="targetPoint" />
          </mxGeometry>
        </mxCell>
        <mxCell id="TJa9ObyF46NKCLbVQbv8-11" value="10G" style="endArrow=none;html=1;rounded=0;entryX=0.5;entryY=1;entryDx=0;entryDy=0;exitX=0.5;exitY=0;exitDx=0;exitDy=0;" parent="1" source="TJa9ObyF46NKCLbVQbv8-15" target="TJa9ObyF46NKCLbVQbv8-14" edge="1">
          <mxGeometry width="50" height="50" relative="1" as="geometry">
            <mxPoint x="555.3600000000001" y="456" as="sourcePoint" />
            <mxPoint x="578" y="394.71000000000004" as="targetPoint" />
            <Array as="points" />
          </mxGeometry>
        </mxCell>
        <mxCell id="TJa9ObyF46NKCLbVQbv8-13" value="2" style="ellipse;whiteSpace=wrap;html=1;aspect=fixed;" parent="1" vertex="1">
          <mxGeometry x="493" y="384" width="13" height="13" as="geometry" />
        </mxCell>
        <mxCell id="TJa9ObyF46NKCLbVQbv8-14" value="2" style="ellipse;whiteSpace=wrap;html=1;aspect=fixed;" parent="1" vertex="1">
          <mxGeometry x="573" y="384" width="13" height="13" as="geometry" />
        </mxCell>
        <mxCell id="TJa9ObyF46NKCLbVQbv8-15" value="x" style="ellipse;whiteSpace=wrap;html=1;aspect=fixed;" parent="1" vertex="1">
          <mxGeometry x="547.86" y="456" width="13" height="13" as="geometry" />
        </mxCell>
        <mxCell id="TJa9ObyF46NKCLbVQbv8-16" value="x" style="ellipse;whiteSpace=wrap;html=1;aspect=fixed;" parent="1" vertex="1">
          <mxGeometry x="513" y="456" width="13" height="13" as="geometry" />
        </mxCell>
        <mxCell id="zAIdRJSZyfyUdcmR4cfs-1" value="Aruba VSX" style="text;html=1;align=center;verticalAlign=middle;resizable=0;points=[];autosize=1;strokeColor=none;fillColor=none;" parent="1" vertex="1">
          <mxGeometry x="315" y="198" width="80" height="30" as="geometry" />
        </mxCell>
        <mxCell id="uByfiZmkYGRaIA5idJrm-1" value="VDS" style="text;html=1;align=center;verticalAlign=middle;resizable=0;points=[];autosize=1;strokeColor=none;fillColor=none;fontColor=#6600CC;" parent="1" vertex="1">
          <mxGeometry x="253.75" y="465" width="50" height="30" as="geometry" />
        </mxCell>
        <mxCell id="ZJsjInbWywy7-gWTLOyl-1" value="ESXi x 8" style="text;html=1;align=center;verticalAlign=middle;resizable=0;points=[];autosize=1;strokeColor=none;fillColor=none;" parent="1" vertex="1">
          <mxGeometry x="270" y="516" width="70" height="30" as="geometry" />
        </mxCell>
        <mxCell id="ZJsjInbWywy7-gWTLOyl-2" value="x8" style="text;html=1;align=center;verticalAlign=middle;resizable=0;points=[];autosize=1;strokeColor=none;fillColor=none;" parent="1" vertex="1">
          <mxGeometry x="265" y="414" width="40" height="30" as="geometry" />
        </mxCell>
        <mxCell id="ZJsjInbWywy7-gWTLOyl-3" value="x8" style="text;html=1;align=center;verticalAlign=middle;resizable=0;points=[];autosize=1;strokeColor=none;fillColor=none;" parent="1" vertex="1">
          <mxGeometry x="124" y="414" width="40" height="30" as="geometry" />
        </mxCell>
        <mxCell id="ZJsjInbWywy7-gWTLOyl-4" value="VDS" style="text;html=1;align=center;verticalAlign=middle;resizable=0;points=[];autosize=1;strokeColor=none;fillColor=none;fontColor=#6600CC;" parent="1" vertex="1">
          <mxGeometry x="383.75" y="465" width="50" height="30" as="geometry" />
        </mxCell>
        <mxCell id="Nh7xDwAi6Snu_6WPz6qH-1" value="Aruba VSX" style="text;html=1;align=center;verticalAlign=middle;resizable=0;points=[];autosize=1;strokeColor=none;fillColor=none;" vertex="1" parent="1">
          <mxGeometry x="605" y="313.82" width="80" height="30" as="geometry" />
        </mxCell>
      </root>
    </mxGraphModel>
  </diagram>
  <diagram name="三峽機房接線圖" id="ZEImUiRAl7oIBB_7mjGJ">
    <mxGraphModel dx="1233" dy="785" grid="1" gridSize="10" guides="1" tooltips="1" connect="1" arrows="1" fold="1" page="1" pageScale="1" pageWidth="1169" pageHeight="827" math="0" shadow="0">
      <root>
        <mxCell id="iViBKFCJ-qyeUVXYmt5q-0" />
        <mxCell id="iViBKFCJ-qyeUVXYmt5q-1" parent="iViBKFCJ-qyeUVXYmt5q-0" />
        <mxCell id="iViBKFCJ-qyeUVXYmt5q-2" value="" style="rounded=1;whiteSpace=wrap;html=1;dashed=1;" parent="iViBKFCJ-qyeUVXYmt5q-1" vertex="1">
          <mxGeometry x="520.86" y="340" width="288" height="60" as="geometry" />
        </mxCell>
        <mxCell id="iViBKFCJ-qyeUVXYmt5q-3" value="" style="rounded=1;whiteSpace=wrap;html=1;dashed=1;" parent="iViBKFCJ-qyeUVXYmt5q-1" vertex="1">
          <mxGeometry x="252" y="220" width="288" height="60" as="geometry" />
        </mxCell>
        <mxCell id="iViBKFCJ-qyeUVXYmt5q-4" value="Aruba&lt;br&gt;8325-32-it A" style="rounded=1;whiteSpace=wrap;html=1;fontColor=#FFFFFF;fillColor=#008cb4;" parent="iViBKFCJ-qyeUVXYmt5q-1" vertex="1">
          <mxGeometry x="260" y="230" width="120" height="40" as="geometry" />
        </mxCell>
        <mxCell id="iViBKFCJ-qyeUVXYmt5q-5" value="1" style="rounded=0;whiteSpace=wrap;html=1;" parent="iViBKFCJ-qyeUVXYmt5q-1" vertex="1">
          <mxGeometry x="280" y="265" width="13" height="13" as="geometry" />
        </mxCell>
        <mxCell id="iViBKFCJ-qyeUVXYmt5q-6" value="2" style="rounded=0;whiteSpace=wrap;html=1;" parent="iViBKFCJ-qyeUVXYmt5q-1" vertex="1">
          <mxGeometry x="300" y="265" width="13" height="13" as="geometry" />
        </mxCell>
        <mxCell id="iViBKFCJ-qyeUVXYmt5q-7" value="3" style="rounded=0;whiteSpace=wrap;html=1;" parent="iViBKFCJ-qyeUVXYmt5q-1" vertex="1">
          <mxGeometry x="320" y="265" width="13" height="13" as="geometry" />
        </mxCell>
        <mxCell id="iViBKFCJ-qyeUVXYmt5q-8" value="Aruba&lt;br&gt;8325-32-it B" style="rounded=1;whiteSpace=wrap;html=1;fillColor=#008cb4;fontColor=#ffffff;" parent="iViBKFCJ-qyeUVXYmt5q-1" vertex="1">
          <mxGeometry x="410" y="230" width="120" height="40" as="geometry" />
        </mxCell>
        <mxCell id="iViBKFCJ-qyeUVXYmt5q-9" value="1" style="rounded=0;whiteSpace=wrap;html=1;" parent="iViBKFCJ-qyeUVXYmt5q-1" vertex="1">
          <mxGeometry x="430" y="265" width="13" height="13" as="geometry" />
        </mxCell>
        <mxCell id="iViBKFCJ-qyeUVXYmt5q-10" value="2" style="rounded=0;whiteSpace=wrap;html=1;" parent="iViBKFCJ-qyeUVXYmt5q-1" vertex="1">
          <mxGeometry x="450" y="265" width="13" height="13" as="geometry" />
        </mxCell>
        <mxCell id="iViBKFCJ-qyeUVXYmt5q-11" value="3" style="rounded=0;whiteSpace=wrap;html=1;" parent="iViBKFCJ-qyeUVXYmt5q-1" vertex="1">
          <mxGeometry x="470" y="265" width="13" height="13" as="geometry" />
        </mxCell>
        <mxCell id="iViBKFCJ-qyeUVXYmt5q-12" value="100G" style="endArrow=none;html=1;rounded=0;entryX=0.5;entryY=1;entryDx=0;entryDy=0;exitX=0.5;exitY=0;exitDx=0;exitDy=0;strokeWidth=2;" parent="iViBKFCJ-qyeUVXYmt5q-1" source="iViBKFCJ-qyeUVXYmt5q-18" target="iViBKFCJ-qyeUVXYmt5q-5" edge="1">
          <mxGeometry width="50" height="50" relative="1" as="geometry">
            <mxPoint x="240" y="325" as="sourcePoint" />
            <mxPoint x="290" y="275" as="targetPoint" />
            <Array as="points" />
          </mxGeometry>
        </mxCell>
        <mxCell id="iViBKFCJ-qyeUVXYmt5q-13" value="" style="endArrow=none;html=1;rounded=0;exitX=1;exitY=0.75;exitDx=0;exitDy=0;entryX=0;entryY=0.75;entryDx=0;entryDy=0;strokeColor=#009900;strokeWidth=2;" parent="iViBKFCJ-qyeUVXYmt5q-1" source="iViBKFCJ-qyeUVXYmt5q-4" target="iViBKFCJ-qyeUVXYmt5q-8" edge="1">
          <mxGeometry width="50" height="50" relative="1" as="geometry">
            <mxPoint x="440" y="430" as="sourcePoint" />
            <mxPoint x="490" y="380" as="targetPoint" />
          </mxGeometry>
        </mxCell>
        <mxCell id="iViBKFCJ-qyeUVXYmt5q-14" value="" style="endArrow=none;html=1;rounded=0;exitX=1;exitY=0.5;exitDx=0;exitDy=0;strokeColor=#009900;strokeWidth=2;" parent="iViBKFCJ-qyeUVXYmt5q-1" source="iViBKFCJ-qyeUVXYmt5q-4" target="iViBKFCJ-qyeUVXYmt5q-8" edge="1">
          <mxGeometry width="50" height="50" relative="1" as="geometry">
            <mxPoint x="450" y="430" as="sourcePoint" />
            <mxPoint x="500" y="380" as="targetPoint" />
          </mxGeometry>
        </mxCell>
        <mxCell id="iViBKFCJ-qyeUVXYmt5q-15" value="" style="endArrow=none;dashed=1;html=1;rounded=0;exitX=1;exitY=0.25;exitDx=0;exitDy=0;strokeColor=#009900;" parent="iViBKFCJ-qyeUVXYmt5q-1" source="iViBKFCJ-qyeUVXYmt5q-4" edge="1">
          <mxGeometry width="50" height="50" relative="1" as="geometry">
            <mxPoint x="450" y="430" as="sourcePoint" />
            <mxPoint x="410" y="240" as="targetPoint" />
          </mxGeometry>
        </mxCell>
        <mxCell id="iViBKFCJ-qyeUVXYmt5q-16" value="Aruba&lt;br&gt;8325-48-it A" style="rounded=1;whiteSpace=wrap;html=1;fontColor=#FFFFFF;fillColor=#008cb4;" parent="iViBKFCJ-qyeUVXYmt5q-1" vertex="1">
          <mxGeometry x="180" y="348.71" width="120" height="41.29" as="geometry" />
        </mxCell>
        <mxCell id="iViBKFCJ-qyeUVXYmt5q-17" value="Aruba&lt;br&gt;8325-48-it B" style="rounded=1;whiteSpace=wrap;html=1;fillColor=#008cb4;fontColor=#ffffff;" parent="iViBKFCJ-qyeUVXYmt5q-1" vertex="1">
          <mxGeometry x="330" y="348.71" width="120" height="41.29" as="geometry" />
        </mxCell>
        <mxCell id="iViBKFCJ-qyeUVXYmt5q-18" value="1" style="rounded=0;whiteSpace=wrap;html=1;" parent="iViBKFCJ-qyeUVXYmt5q-1" vertex="1">
          <mxGeometry x="225" y="344.71" width="13" height="13" as="geometry" />
        </mxCell>
        <mxCell id="iViBKFCJ-qyeUVXYmt5q-19" value="2" style="rounded=0;whiteSpace=wrap;html=1;" parent="iViBKFCJ-qyeUVXYmt5q-1" vertex="1">
          <mxGeometry x="245" y="344.71" width="13" height="13" as="geometry" />
        </mxCell>
        <mxCell id="iViBKFCJ-qyeUVXYmt5q-20" value="1" style="rounded=0;whiteSpace=wrap;html=1;" parent="iViBKFCJ-qyeUVXYmt5q-1" vertex="1">
          <mxGeometry x="375" y="344.71" width="13" height="13" as="geometry" />
        </mxCell>
        <mxCell id="iViBKFCJ-qyeUVXYmt5q-21" value="2" style="rounded=0;whiteSpace=wrap;html=1;" parent="iViBKFCJ-qyeUVXYmt5q-1" vertex="1">
          <mxGeometry x="395" y="344.71" width="13" height="13" as="geometry" />
        </mxCell>
        <mxCell id="iViBKFCJ-qyeUVXYmt5q-22" value="100G" style="endArrow=none;html=1;rounded=0;entryX=0.5;entryY=1;entryDx=0;entryDy=0;exitX=0.5;exitY=0;exitDx=0;exitDy=0;strokeWidth=2;" parent="iViBKFCJ-qyeUVXYmt5q-1" source="iViBKFCJ-qyeUVXYmt5q-19" target="iViBKFCJ-qyeUVXYmt5q-9" edge="1">
          <mxGeometry x="0.2955" width="50" height="50" relative="1" as="geometry">
            <mxPoint x="270" y="410" as="sourcePoint" />
            <mxPoint x="295" y="285" as="targetPoint" />
            <Array as="points" />
            <mxPoint y="1" as="offset" />
          </mxGeometry>
        </mxCell>
        <mxCell id="iViBKFCJ-qyeUVXYmt5q-23" value="100G" style="endArrow=none;html=1;rounded=0;entryX=0.5;entryY=1;entryDx=0;entryDy=0;exitX=0.25;exitY=0;exitDx=0;exitDy=0;strokeWidth=2;" parent="iViBKFCJ-qyeUVXYmt5q-1" source="iViBKFCJ-qyeUVXYmt5q-20" target="iViBKFCJ-qyeUVXYmt5q-6" edge="1">
          <mxGeometry x="0.2971" y="1" width="50" height="50" relative="1" as="geometry">
            <mxPoint x="270" y="436" as="sourcePoint" />
            <mxPoint x="305" y="295" as="targetPoint" />
            <Array as="points" />
            <mxPoint as="offset" />
          </mxGeometry>
        </mxCell>
        <mxCell id="iViBKFCJ-qyeUVXYmt5q-24" value="100G" style="endArrow=none;html=1;rounded=0;entryX=0.25;entryY=1;entryDx=0;entryDy=0;exitX=0.5;exitY=0;exitDx=0;exitDy=0;strokeWidth=2;" parent="iViBKFCJ-qyeUVXYmt5q-1" source="iViBKFCJ-qyeUVXYmt5q-21" target="iViBKFCJ-qyeUVXYmt5q-10" edge="1">
          <mxGeometry x="-0.0888" y="5" width="50" height="50" relative="1" as="geometry">
            <mxPoint x="280" y="446" as="sourcePoint" />
            <mxPoint x="315" y="305" as="targetPoint" />
            <Array as="points" />
            <mxPoint as="offset" />
          </mxGeometry>
        </mxCell>
        <mxCell id="iViBKFCJ-qyeUVXYmt5q-25" value="" style="ellipse;whiteSpace=wrap;html=1;rotation=15;fillColor=none;" parent="iViBKFCJ-qyeUVXYmt5q-1" vertex="1">
          <mxGeometry x="229.66" y="321.32" width="50.17" height="15" as="geometry" />
        </mxCell>
        <mxCell id="iViBKFCJ-qyeUVXYmt5q-26" value="" style="ellipse;whiteSpace=wrap;html=1;rotation=0;fillColor=none;" parent="iViBKFCJ-qyeUVXYmt5q-1" vertex="1">
          <mxGeometry x="357.5" y="321.32" width="62.5" height="15" as="geometry" />
        </mxCell>
        <mxCell id="iViBKFCJ-qyeUVXYmt5q-27" value="Aruba&lt;br&gt;8325-48-it C" style="rounded=1;whiteSpace=wrap;html=1;fontColor=#FFFFFF;fillColor=#008cb4;" parent="iViBKFCJ-qyeUVXYmt5q-1" vertex="1">
          <mxGeometry x="530" y="348.71" width="120" height="40" as="geometry" />
        </mxCell>
        <mxCell id="iViBKFCJ-qyeUVXYmt5q-28" value="Aruba&lt;br&gt;8325-48-it D" style="rounded=1;whiteSpace=wrap;html=1;fillColor=#008cb4;fontColor=#ffffff;" parent="iViBKFCJ-qyeUVXYmt5q-1" vertex="1">
          <mxGeometry x="680" y="348.71" width="120" height="40" as="geometry" />
        </mxCell>
        <mxCell id="iViBKFCJ-qyeUVXYmt5q-29" value="" style="endArrow=none;html=1;rounded=0;exitX=1;exitY=0.75;exitDx=0;exitDy=0;entryX=0;entryY=0.75;entryDx=0;entryDy=0;strokeColor=#009900;strokeWidth=2;" parent="iViBKFCJ-qyeUVXYmt5q-1" source="iViBKFCJ-qyeUVXYmt5q-27" target="iViBKFCJ-qyeUVXYmt5q-28" edge="1">
          <mxGeometry width="50" height="50" relative="1" as="geometry">
            <mxPoint x="710" y="548.71" as="sourcePoint" />
            <mxPoint x="760" y="498.71" as="targetPoint" />
          </mxGeometry>
        </mxCell>
        <mxCell id="iViBKFCJ-qyeUVXYmt5q-30" value="" style="endArrow=none;html=1;rounded=0;exitX=1;exitY=0.5;exitDx=0;exitDy=0;strokeColor=#009900;strokeWidth=2;" parent="iViBKFCJ-qyeUVXYmt5q-1" source="iViBKFCJ-qyeUVXYmt5q-27" target="iViBKFCJ-qyeUVXYmt5q-28" edge="1">
          <mxGeometry width="50" height="50" relative="1" as="geometry">
            <mxPoint x="720" y="548.71" as="sourcePoint" />
            <mxPoint x="770" y="498.71" as="targetPoint" />
          </mxGeometry>
        </mxCell>
        <mxCell id="iViBKFCJ-qyeUVXYmt5q-31" value="" style="endArrow=none;dashed=1;html=1;rounded=0;exitX=1;exitY=0.25;exitDx=0;exitDy=0;entryX=0;entryY=0.25;entryDx=0;entryDy=0;strokeColor=#009900;" parent="iViBKFCJ-qyeUVXYmt5q-1" source="iViBKFCJ-qyeUVXYmt5q-27" target="iViBKFCJ-qyeUVXYmt5q-28" edge="1">
          <mxGeometry width="50" height="50" relative="1" as="geometry">
            <mxPoint x="720" y="548.71" as="sourcePoint" />
            <mxPoint x="770" y="498.71" as="targetPoint" />
          </mxGeometry>
        </mxCell>
        <mxCell id="iViBKFCJ-qyeUVXYmt5q-32" value="" style="ellipse;whiteSpace=wrap;html=1;rotation=90;fillColor=none;strokeColor=#009900;" parent="iViBKFCJ-qyeUVXYmt5q-1" vertex="1">
          <mxGeometry x="654.86" y="368.86" width="20" height="8.71" as="geometry" />
        </mxCell>
        <mxCell id="iViBKFCJ-qyeUVXYmt5q-33" value="1" style="rounded=0;whiteSpace=wrap;html=1;" parent="iViBKFCJ-qyeUVXYmt5q-1" vertex="1">
          <mxGeometry x="735" y="344.71" width="13" height="13" as="geometry" />
        </mxCell>
        <mxCell id="iViBKFCJ-qyeUVXYmt5q-34" value="1" style="rounded=0;whiteSpace=wrap;html=1;" parent="iViBKFCJ-qyeUVXYmt5q-1" vertex="1">
          <mxGeometry x="580" y="344.71" width="13" height="13" as="geometry" />
        </mxCell>
        <mxCell id="iViBKFCJ-qyeUVXYmt5q-35" value="100G" style="endArrow=none;html=1;rounded=0;exitX=0.5;exitY=1;exitDx=0;exitDy=0;entryX=0.25;entryY=0;entryDx=0;entryDy=0;strokeWidth=2;" parent="iViBKFCJ-qyeUVXYmt5q-1" source="iViBKFCJ-qyeUVXYmt5q-7" target="iViBKFCJ-qyeUVXYmt5q-34" edge="1">
          <mxGeometry x="0.2098" y="-3" width="50" height="50" relative="1" as="geometry">
            <mxPoint x="490" y="430" as="sourcePoint" />
            <mxPoint x="540" y="380" as="targetPoint" />
            <mxPoint as="offset" />
          </mxGeometry>
        </mxCell>
        <mxCell id="iViBKFCJ-qyeUVXYmt5q-37" value="100G" style="endArrow=none;html=1;rounded=0;entryX=0.5;entryY=1;entryDx=0;entryDy=0;exitX=0.5;exitY=0;exitDx=0;exitDy=0;strokeWidth=2;" parent="iViBKFCJ-qyeUVXYmt5q-1" source="iViBKFCJ-qyeUVXYmt5q-33" target="iViBKFCJ-qyeUVXYmt5q-11" edge="1">
          <mxGeometry width="50" height="50" relative="1" as="geometry">
            <mxPoint x="490" y="430" as="sourcePoint" />
            <mxPoint x="540" y="380" as="targetPoint" />
          </mxGeometry>
        </mxCell>
        <mxCell id="iViBKFCJ-qyeUVXYmt5q-39" value="" style="ellipse;whiteSpace=wrap;html=1;rotation=-45;fillColor=none;" parent="iViBKFCJ-qyeUVXYmt5q-1" vertex="1">
          <mxGeometry x="517.5" y="306.32" width="62.5" height="15" as="geometry" />
        </mxCell>
        <mxCell id="iViBKFCJ-qyeUVXYmt5q-40" value="" style="rounded=1;whiteSpace=wrap;html=1;" parent="iViBKFCJ-qyeUVXYmt5q-1" vertex="1">
          <mxGeometry x="190" y="446" width="260" height="70" as="geometry" />
        </mxCell>
        <mxCell id="iViBKFCJ-qyeUVXYmt5q-41" value="" style="rounded=1;whiteSpace=wrap;html=1;" parent="iViBKFCJ-qyeUVXYmt5q-1" vertex="1">
          <mxGeometry x="180" y="436" width="260" height="70" as="geometry" />
        </mxCell>
        <mxCell id="iViBKFCJ-qyeUVXYmt5q-42" value="x" style="rounded=0;whiteSpace=wrap;html=1;" parent="iViBKFCJ-qyeUVXYmt5q-1" vertex="1">
          <mxGeometry x="370.75" y="383.71" width="13" height="13" as="geometry" />
        </mxCell>
        <mxCell id="iViBKFCJ-qyeUVXYmt5q-43" value="x" style="rounded=0;whiteSpace=wrap;html=1;" parent="iViBKFCJ-qyeUVXYmt5q-1" vertex="1">
          <mxGeometry x="234" y="383.71" width="13" height="13" as="geometry" />
        </mxCell>
        <mxCell id="iViBKFCJ-qyeUVXYmt5q-44" value="25G" style="endArrow=none;html=1;rounded=0;entryX=0.5;entryY=1;entryDx=0;entryDy=0;exitX=0.5;exitY=0;exitDx=0;exitDy=0;" parent="iViBKFCJ-qyeUVXYmt5q-1" source="iViBKFCJ-qyeUVXYmt5q-54" target="iViBKFCJ-qyeUVXYmt5q-42" edge="1">
          <mxGeometry width="50" height="50" relative="1" as="geometry">
            <mxPoint x="400" y="420" as="sourcePoint" />
            <mxPoint x="450" y="370" as="targetPoint" />
          </mxGeometry>
        </mxCell>
        <mxCell id="iViBKFCJ-qyeUVXYmt5q-46" value="25G" style="endArrow=none;html=1;rounded=0;entryX=0.5;entryY=1;entryDx=0;entryDy=0;" parent="iViBKFCJ-qyeUVXYmt5q-1" edge="1" target="iViBKFCJ-qyeUVXYmt5q-43">
          <mxGeometry width="50" height="50" relative="1" as="geometry">
            <mxPoint x="240" y="430" as="sourcePoint" />
            <mxPoint x="249.71" y="393.71" as="targetPoint" />
          </mxGeometry>
        </mxCell>
        <mxCell id="iViBKFCJ-qyeUVXYmt5q-48" value="" style="rounded=1;whiteSpace=wrap;html=1;fillColor=#CCCCFF;" parent="iViBKFCJ-qyeUVXYmt5q-1" vertex="1">
          <mxGeometry x="190" y="439" width="240" height="29" as="geometry" />
        </mxCell>
        <mxCell id="iViBKFCJ-qyeUVXYmt5q-49" value="" style="ellipse;whiteSpace=wrap;html=1;rotation=90;fillColor=none;strokeColor=#009900;" parent="iViBKFCJ-qyeUVXYmt5q-1" vertex="1">
          <mxGeometry x="383.75" y="250.29000000000002" width="20" height="8.71" as="geometry" />
        </mxCell>
        <mxCell id="iViBKFCJ-qyeUVXYmt5q-50" value="port group 1" style="rounded=1;whiteSpace=wrap;html=1;" parent="iViBKFCJ-qyeUVXYmt5q-1" vertex="1">
          <mxGeometry x="194.75" y="443" width="75.25" height="22" as="geometry" />
        </mxCell>
        <mxCell id="iViBKFCJ-qyeUVXYmt5q-51" value="port group 2" style="rounded=1;whiteSpace=wrap;html=1;" parent="iViBKFCJ-qyeUVXYmt5q-1" vertex="1">
          <mxGeometry x="272.38" y="443" width="75.25" height="22" as="geometry" />
        </mxCell>
        <mxCell id="iViBKFCJ-qyeUVXYmt5q-52" value="port group 2" style="rounded=1;whiteSpace=wrap;html=1;" parent="iViBKFCJ-qyeUVXYmt5q-1" vertex="1">
          <mxGeometry x="351.13" y="443" width="75.25" height="22" as="geometry" />
        </mxCell>
        <mxCell id="iViBKFCJ-qyeUVXYmt5q-53" value="vnic5" style="rounded=0;whiteSpace=wrap;html=1;" parent="iViBKFCJ-qyeUVXYmt5q-1" vertex="1">
          <mxGeometry x="223" y="428" width="35" height="13" as="geometry" />
        </mxCell>
        <mxCell id="iViBKFCJ-qyeUVXYmt5q-54" value="vnic7" style="rounded=0;whiteSpace=wrap;html=1;" parent="iViBKFCJ-qyeUVXYmt5q-1" vertex="1">
          <mxGeometry x="360.25" y="428" width="34" height="13" as="geometry" />
        </mxCell>
        <mxCell id="iViBKFCJ-qyeUVXYmt5q-55" value="" style="sketch=0;pointerEvents=1;shadow=0;dashed=0;html=1;strokeColor=none;fillColor=#434445;aspect=fixed;labelPosition=center;verticalLabelPosition=bottom;verticalAlign=top;align=center;outlineConnect=0;shape=mxgraph.vvd.vm_group;" parent="iViBKFCJ-qyeUVXYmt5q-1" vertex="1">
          <mxGeometry x="199.96" y="473" width="29.7" height="30" as="geometry" />
        </mxCell>
        <mxCell id="iViBKFCJ-qyeUVXYmt5q-56" value="" style="sketch=0;pointerEvents=1;shadow=0;dashed=0;html=1;strokeColor=none;fillColor=#434445;aspect=fixed;labelPosition=center;verticalLabelPosition=bottom;verticalAlign=top;align=center;outlineConnect=0;shape=mxgraph.vvd.vm_group;" parent="iViBKFCJ-qyeUVXYmt5q-1" vertex="1">
          <mxGeometry x="235" y="473" width="29.7" height="30" as="geometry" />
        </mxCell>
        <mxCell id="iViBKFCJ-qyeUVXYmt5q-57" value="" style="sketch=0;pointerEvents=1;shadow=0;dashed=0;html=1;strokeColor=none;fillColor=#434445;aspect=fixed;labelPosition=center;verticalLabelPosition=bottom;verticalAlign=top;align=center;outlineConnect=0;shape=mxgraph.vvd.vm_group;" parent="iViBKFCJ-qyeUVXYmt5q-1" vertex="1">
          <mxGeometry x="270" y="473" width="29.7" height="30" as="geometry" />
        </mxCell>
        <mxCell id="iViBKFCJ-qyeUVXYmt5q-61" value="Cisco ASR 9K" style="rounded=1;whiteSpace=wrap;html=1;fontColor=#FFFFFF;fillColor=#009900;" parent="iViBKFCJ-qyeUVXYmt5q-1" vertex="1">
          <mxGeometry x="604.86" y="460" width="120" height="40" as="geometry" />
        </mxCell>
        <mxCell id="iViBKFCJ-qyeUVXYmt5q-67" value="10G" style="endArrow=none;html=1;rounded=0;entryX=0.5;entryY=1;entryDx=0;entryDy=0;exitX=0.5;exitY=0;exitDx=0;exitDy=0;" parent="iViBKFCJ-qyeUVXYmt5q-1" source="CQWJ5CPlYczvCIr0B9Er-6" target="CQWJ5CPlYczvCIr0B9Er-3" edge="1">
          <mxGeometry width="50" height="50" relative="1" as="geometry">
            <mxPoint x="645" y="455" as="sourcePoint" />
            <mxPoint x="625" y="393.71000000000004" as="targetPoint" />
          </mxGeometry>
        </mxCell>
        <mxCell id="iViBKFCJ-qyeUVXYmt5q-69" value="10G" style="endArrow=none;html=1;rounded=0;entryX=0.5;entryY=1;entryDx=0;entryDy=0;exitX=0.5;exitY=0;exitDx=0;exitDy=0;" parent="iViBKFCJ-qyeUVXYmt5q-1" source="CQWJ5CPlYczvCIr0B9Er-5" target="CQWJ5CPlYczvCIr0B9Er-4" edge="1">
          <mxGeometry width="50" height="50" relative="1" as="geometry">
            <mxPoint x="682.3600000000001" y="455" as="sourcePoint" />
            <mxPoint x="705" y="393.71000000000004" as="targetPoint" />
            <Array as="points">
              <mxPoint x="690" y="430" />
            </Array>
          </mxGeometry>
        </mxCell>
        <mxCell id="iViBKFCJ-qyeUVXYmt5q-71" value="To 科大機房&lt;br&gt;裸光設備" style="rounded=1;whiteSpace=wrap;html=1;fontColor=#FFFFFF;fillColor=#009900;" parent="iViBKFCJ-qyeUVXYmt5q-1" vertex="1">
          <mxGeometry x="65.86000000000001" y="232" width="110.14" height="40" as="geometry" />
        </mxCell>
        <mxCell id="iViBKFCJ-qyeUVXYmt5q-72" value="48" style="rounded=0;whiteSpace=wrap;html=1;" parent="iViBKFCJ-qyeUVXYmt5q-1" vertex="1">
          <mxGeometry x="255" y="245" width="13" height="13" as="geometry" />
        </mxCell>
        <mxCell id="iViBKFCJ-qyeUVXYmt5q-73" value="x" style="rounded=0;whiteSpace=wrap;html=1;" parent="iViBKFCJ-qyeUVXYmt5q-1" vertex="1">
          <mxGeometry x="170" y="247" width="10" height="10" as="geometry" />
        </mxCell>
        <mxCell id="iViBKFCJ-qyeUVXYmt5q-74" value="10G" style="endArrow=none;html=1;rounded=0;exitX=1;exitY=0.5;exitDx=0;exitDy=0;entryX=0;entryY=0.5;entryDx=0;entryDy=0;" parent="iViBKFCJ-qyeUVXYmt5q-1" source="iViBKFCJ-qyeUVXYmt5q-73" target="iViBKFCJ-qyeUVXYmt5q-72" edge="1">
          <mxGeometry x="0.0668" width="50" height="50" relative="1" as="geometry">
            <mxPoint x="190" y="248" as="sourcePoint" />
            <mxPoint x="240" y="250" as="targetPoint" />
            <mxPoint as="offset" />
          </mxGeometry>
        </mxCell>
        <mxCell id="CQWJ5CPlYczvCIr0B9Er-3" value="" style="ellipse;whiteSpace=wrap;html=1;aspect=fixed;" parent="iViBKFCJ-qyeUVXYmt5q-1" vertex="1">
          <mxGeometry x="620" y="383" width="10" height="10" as="geometry" />
        </mxCell>
        <mxCell id="CQWJ5CPlYczvCIr0B9Er-4" value="" style="ellipse;whiteSpace=wrap;html=1;aspect=fixed;" parent="iViBKFCJ-qyeUVXYmt5q-1" vertex="1">
          <mxGeometry x="700" y="383" width="10" height="10" as="geometry" />
        </mxCell>
        <mxCell id="CQWJ5CPlYczvCIr0B9Er-5" value="" style="ellipse;whiteSpace=wrap;html=1;aspect=fixed;" parent="iViBKFCJ-qyeUVXYmt5q-1" vertex="1">
          <mxGeometry x="674.86" y="455" width="10" height="10" as="geometry" />
        </mxCell>
        <mxCell id="CQWJ5CPlYczvCIr0B9Er-6" value="" style="ellipse;whiteSpace=wrap;html=1;aspect=fixed;" parent="iViBKFCJ-qyeUVXYmt5q-1" vertex="1">
          <mxGeometry x="640" y="455" width="10" height="10" as="geometry" />
        </mxCell>
        <mxCell id="0WyHCceb24pyVnaxEV2j-0" value="VDS" style="text;html=1;align=center;verticalAlign=middle;resizable=0;points=[];autosize=1;strokeColor=none;fillColor=none;fontColor=#6600CC;" parent="iViBKFCJ-qyeUVXYmt5q-1" vertex="1">
          <mxGeometry x="383.75" y="465" width="50" height="30" as="geometry" />
        </mxCell>
        <mxCell id="pSiJ4HnZcWrTTANteuy6-0" value="ESXi x 8" style="text;html=1;align=center;verticalAlign=middle;resizable=0;points=[];autosize=1;strokeColor=none;fillColor=none;" parent="iViBKFCJ-qyeUVXYmt5q-1" vertex="1">
          <mxGeometry x="402" y="516" width="70" height="30" as="geometry" />
        </mxCell>
        <mxCell id="pSiJ4HnZcWrTTANteuy6-1" value="x8" style="text;html=1;align=center;verticalAlign=middle;resizable=0;points=[];autosize=1;strokeColor=none;fillColor=none;" parent="iViBKFCJ-qyeUVXYmt5q-1" vertex="1">
          <mxGeometry x="389" y="414" width="40" height="30" as="geometry" />
        </mxCell>
        <mxCell id="pSiJ4HnZcWrTTANteuy6-2" value="x8" style="text;html=1;align=center;verticalAlign=middle;resizable=0;points=[];autosize=1;strokeColor=none;fillColor=none;" parent="iViBKFCJ-qyeUVXYmt5q-1" vertex="1">
          <mxGeometry x="252" y="414" width="40" height="30" as="geometry" />
        </mxCell>
        <mxCell id="dI2DG3s5p4rqwEaXbza--0" value="Aruba VSX" style="text;html=1;align=center;verticalAlign=middle;resizable=0;points=[];autosize=1;strokeColor=none;fillColor=none;" vertex="1" parent="iViBKFCJ-qyeUVXYmt5q-1">
          <mxGeometry x="460" y="190" width="80" height="30" as="geometry" />
        </mxCell>
        <mxCell id="dI2DG3s5p4rqwEaXbza--1" value="Aruba VSX" style="text;html=1;align=center;verticalAlign=middle;resizable=0;points=[];autosize=1;strokeColor=none;fillColor=none;" vertex="1" parent="iViBKFCJ-qyeUVXYmt5q-1">
          <mxGeometry x="735" y="310" width="80" height="30" as="geometry" />
        </mxCell>
        <mxCell id="bAZe3PyPvVJuBgzrphv3-0" value="" style="endArrow=none;html=1;rounded=0;" edge="1" parent="iViBKFCJ-qyeUVXYmt5q-1">
          <mxGeometry x="-70" y="245" width="50" height="50" relative="1" as="geometry">
            <mxPoint x="50" y="36" as="sourcePoint" />
            <mxPoint x="90" y="36" as="targetPoint" />
            <Array as="points">
              <mxPoint x="110" y="36" />
            </Array>
          </mxGeometry>
        </mxCell>
        <mxCell id="bAZe3PyPvVJuBgzrphv3-1" value="&amp;nbsp;Num G" style="edgeLabel;html=1;align=center;verticalAlign=middle;resizable=0;points=[];" connectable="0" vertex="1" parent="bAZe3PyPvVJuBgzrphv3-0">
          <mxGeometry x="0.1625" y="1" relative="1" as="geometry">
            <mxPoint x="-21" as="offset" />
          </mxGeometry>
        </mxCell>
        <mxCell id="bAZe3PyPvVJuBgzrphv3-2" value="" style="endArrow=none;dashed=1;html=1;rounded=0;strokeColor=#009900;" edge="1" parent="iViBKFCJ-qyeUVXYmt5q-1">
          <mxGeometry width="50" height="50" relative="1" as="geometry">
            <mxPoint x="45" y="78.5" as="sourcePoint" />
            <mxPoint x="105" y="78.5" as="targetPoint" />
            <Array as="points">
              <mxPoint x="85" y="78.5" />
            </Array>
          </mxGeometry>
        </mxCell>
        <mxCell id="bAZe3PyPvVJuBgzrphv3-3" value="" style="rounded=0;whiteSpace=wrap;html=1;" vertex="1" parent="iViBKFCJ-qyeUVXYmt5q-1">
          <mxGeometry x="255.23000000000002" y="32.5" width="10" height="10" as="geometry" />
        </mxCell>
        <mxCell id="bAZe3PyPvVJuBgzrphv3-4" value="" style="ellipse;whiteSpace=wrap;html=1;aspect=fixed;" vertex="1" parent="iViBKFCJ-qyeUVXYmt5q-1">
          <mxGeometry x="255.23000000000002" y="52.5" width="10" height="10" as="geometry" />
        </mxCell>
        <mxCell id="bAZe3PyPvVJuBgzrphv3-5" value="一般資料傳輸" style="text;html=1;align=center;verticalAlign=middle;resizable=0;points=[];autosize=1;strokeColor=none;fillColor=none;" vertex="1" parent="iViBKFCJ-qyeUVXYmt5q-1">
          <mxGeometry x="110" y="20" width="100" height="30" as="geometry" />
        </mxCell>
        <mxCell id="bAZe3PyPvVJuBgzrphv3-6" value="VSX Keepalive" style="text;html=1;align=center;verticalAlign=middle;resizable=0;points=[];autosize=1;strokeColor=none;fillColor=none;" vertex="1" parent="iViBKFCJ-qyeUVXYmt5q-1">
          <mxGeometry x="119" y="64" width="100" height="30" as="geometry" />
        </mxCell>
        <mxCell id="bAZe3PyPvVJuBgzrphv3-7" value="Trunk Port" style="text;html=1;align=center;verticalAlign=middle;resizable=0;points=[];autosize=1;strokeColor=none;fillColor=none;" vertex="1" parent="iViBKFCJ-qyeUVXYmt5q-1">
          <mxGeometry x="309.33" y="22.5" width="80" height="30" as="geometry" />
        </mxCell>
        <mxCell id="bAZe3PyPvVJuBgzrphv3-8" value="Route Port" style="text;html=1;align=center;verticalAlign=middle;resizable=0;points=[];autosize=1;strokeColor=none;fillColor=none;" vertex="1" parent="iViBKFCJ-qyeUVXYmt5q-1">
          <mxGeometry x="309.37" y="41.5" width="80" height="30" as="geometry" />
        </mxCell>
        <mxCell id="bAZe3PyPvVJuBgzrphv3-9" value="" style="ellipse;whiteSpace=wrap;html=1;rotation=0;fillColor=none;" vertex="1" parent="iViBKFCJ-qyeUVXYmt5q-1">
          <mxGeometry x="236.87" y="71.5" width="62.5" height="15" as="geometry" />
        </mxCell>
        <mxCell id="bAZe3PyPvVJuBgzrphv3-10" value="EtherChannel" style="text;html=1;align=center;verticalAlign=middle;resizable=0;points=[];autosize=1;strokeColor=none;fillColor=none;" vertex="1" parent="iViBKFCJ-qyeUVXYmt5q-1">
          <mxGeometry x="307" y="64" width="100" height="30" as="geometry" />
        </mxCell>
        <mxCell id="bAZe3PyPvVJuBgzrphv3-11" value="" style="endArrow=none;html=1;rounded=0;exitX=1;exitY=0.75;exitDx=0;exitDy=0;strokeColor=#009900;strokeWidth=2;" edge="1" parent="iViBKFCJ-qyeUVXYmt5q-1">
          <mxGeometry width="50" height="50" relative="1" as="geometry">
            <mxPoint x="47.5" y="60" as="sourcePoint" />
            <mxPoint x="110" y="60" as="targetPoint" />
          </mxGeometry>
        </mxCell>
        <mxCell id="bAZe3PyPvVJuBgzrphv3-12" value="VSX Peer Link" style="text;html=1;align=center;verticalAlign=middle;resizable=0;points=[];autosize=1;strokeColor=none;fillColor=none;" vertex="1" parent="iViBKFCJ-qyeUVXYmt5q-1">
          <mxGeometry x="117.62999999999998" y="45" width="100" height="30" as="geometry" />
        </mxCell>
      </root>
    </mxGraphModel>
  </diagram>
  <diagram name="科大機房VLAN圖" id="ZDkRrFvW79m1xbIy2g6J">
    <mxGraphModel dx="1233" dy="785" grid="1" gridSize="10" guides="1" tooltips="1" connect="1" arrows="1" fold="1" page="1" pageScale="1" pageWidth="1169" pageHeight="827" math="0" shadow="0">
      <root>
        <mxCell id="fuyKSAtUqPiDZNVKHJhf-0" />
        <mxCell id="fuyKSAtUqPiDZNVKHJhf-1" parent="fuyKSAtUqPiDZNVKHJhf-0" />
        <mxCell id="gPhe5qjAb6fQ9V2J_yjT-0" value="" style="rounded=1;whiteSpace=wrap;html=1;arcSize=5;" parent="fuyKSAtUqPiDZNVKHJhf-1" vertex="1">
          <mxGeometry x="180" y="550.5" width="287" height="150" as="geometry" />
        </mxCell>
        <mxCell id="fuyKSAtUqPiDZNVKHJhf-3" value="" style="rounded=1;whiteSpace=wrap;html=1;arcSize=5;fillColor=#008cb4;" parent="fuyKSAtUqPiDZNVKHJhf-1" vertex="1">
          <mxGeometry x="285" y="140" width="260" height="130" as="geometry" />
        </mxCell>
        <mxCell id="fuyKSAtUqPiDZNVKHJhf-5" value="" style="rounded=0;whiteSpace=wrap;html=1;" parent="fuyKSAtUqPiDZNVKHJhf-1" vertex="1">
          <mxGeometry x="313" y="265" width="10" height="10" as="geometry" />
        </mxCell>
        <mxCell id="fuyKSAtUqPiDZNVKHJhf-6" value="" style="rounded=0;whiteSpace=wrap;html=1;" parent="fuyKSAtUqPiDZNVKHJhf-1" vertex="1">
          <mxGeometry x="333" y="265" width="10" height="10" as="geometry" />
        </mxCell>
        <mxCell id="fuyKSAtUqPiDZNVKHJhf-7" value="" style="rounded=0;whiteSpace=wrap;html=1;" parent="fuyKSAtUqPiDZNVKHJhf-1" vertex="1">
          <mxGeometry x="353" y="265" width="10" height="10" as="geometry" />
        </mxCell>
        <mxCell id="fuyKSAtUqPiDZNVKHJhf-9" value="" style="rounded=0;whiteSpace=wrap;html=1;" parent="fuyKSAtUqPiDZNVKHJhf-1" vertex="1">
          <mxGeometry x="463" y="265" width="10" height="10" as="geometry" />
        </mxCell>
        <mxCell id="fuyKSAtUqPiDZNVKHJhf-10" value="" style="rounded=0;whiteSpace=wrap;html=1;" parent="fuyKSAtUqPiDZNVKHJhf-1" vertex="1">
          <mxGeometry x="483" y="265" width="10" height="10" as="geometry" />
        </mxCell>
        <mxCell id="fuyKSAtUqPiDZNVKHJhf-11" value="" style="rounded=0;whiteSpace=wrap;html=1;" parent="fuyKSAtUqPiDZNVKHJhf-1" vertex="1">
          <mxGeometry x="503" y="265" width="10" height="10" as="geometry" />
        </mxCell>
        <mxCell id="fuyKSAtUqPiDZNVKHJhf-12" value="Trunk" style="endArrow=none;html=1;rounded=0;entryX=0.5;entryY=1;entryDx=0;entryDy=0;exitX=0.5;exitY=0;exitDx=0;exitDy=0;strokeWidth=2;" parent="fuyKSAtUqPiDZNVKHJhf-1" source="fuyKSAtUqPiDZNVKHJhf-18" target="fuyKSAtUqPiDZNVKHJhf-5" edge="1">
          <mxGeometry width="50" height="50" relative="1" as="geometry">
            <mxPoint x="175" y="325" as="sourcePoint" />
            <mxPoint x="225" y="275" as="targetPoint" />
            <Array as="points" />
          </mxGeometry>
        </mxCell>
        <mxCell id="fuyKSAtUqPiDZNVKHJhf-16" value="" style="rounded=1;whiteSpace=wrap;html=1;fontColor=#FFFFFF;fillColor=#008cb4;arcSize=6;" parent="fuyKSAtUqPiDZNVKHJhf-1" vertex="1">
          <mxGeometry x="50" y="348.71" width="255" height="131.29" as="geometry" />
        </mxCell>
        <mxCell id="fuyKSAtUqPiDZNVKHJhf-18" value="" style="rounded=0;whiteSpace=wrap;html=1;" parent="fuyKSAtUqPiDZNVKHJhf-1" vertex="1">
          <mxGeometry x="160" y="344.71" width="10" height="10" as="geometry" />
        </mxCell>
        <mxCell id="fuyKSAtUqPiDZNVKHJhf-19" value="" style="rounded=0;whiteSpace=wrap;html=1;" parent="fuyKSAtUqPiDZNVKHJhf-1" vertex="1">
          <mxGeometry x="180" y="344.71" width="10" height="10" as="geometry" />
        </mxCell>
        <mxCell id="fuyKSAtUqPiDZNVKHJhf-22" value="Trunk" style="endArrow=none;html=1;rounded=0;entryX=0.5;entryY=1;entryDx=0;entryDy=0;exitX=0.5;exitY=0;exitDx=0;exitDy=0;strokeWidth=2;" parent="fuyKSAtUqPiDZNVKHJhf-1" source="fuyKSAtUqPiDZNVKHJhf-19" target="fuyKSAtUqPiDZNVKHJhf-9" edge="1">
          <mxGeometry x="-0.1102" y="4" width="50" height="50" relative="1" as="geometry">
            <mxPoint x="205" y="410" as="sourcePoint" />
            <mxPoint x="230" y="285" as="targetPoint" />
            <Array as="points" />
            <mxPoint as="offset" />
          </mxGeometry>
        </mxCell>
        <mxCell id="fuyKSAtUqPiDZNVKHJhf-23" value="Trunk" style="endArrow=none;html=1;rounded=0;entryX=0.5;entryY=1;entryDx=0;entryDy=0;exitX=0.25;exitY=0;exitDx=0;exitDy=0;strokeWidth=2;" parent="fuyKSAtUqPiDZNVKHJhf-1" source="fuyKSAtUqPiDZNVKHJhf-20" target="fuyKSAtUqPiDZNVKHJhf-6" edge="1">
          <mxGeometry x="-0.25" y="2" width="50" height="50" relative="1" as="geometry">
            <mxPoint x="205" y="436" as="sourcePoint" />
            <mxPoint x="240" y="295" as="targetPoint" />
            <Array as="points" />
            <mxPoint as="offset" />
          </mxGeometry>
        </mxCell>
        <mxCell id="fuyKSAtUqPiDZNVKHJhf-24" value="Trunk" style="endArrow=none;html=1;rounded=0;entryX=0.25;entryY=1;entryDx=0;entryDy=0;exitX=0.5;exitY=0;exitDx=0;exitDy=0;strokeWidth=2;" parent="fuyKSAtUqPiDZNVKHJhf-1" source="fuyKSAtUqPiDZNVKHJhf-21" target="fuyKSAtUqPiDZNVKHJhf-10" edge="1">
          <mxGeometry x="-0.2865" width="50" height="50" relative="1" as="geometry">
            <mxPoint x="215" y="446" as="sourcePoint" />
            <mxPoint x="250" y="305" as="targetPoint" />
            <Array as="points" />
            <mxPoint as="offset" />
          </mxGeometry>
        </mxCell>
        <mxCell id="fuyKSAtUqPiDZNVKHJhf-25" value="" style="ellipse;whiteSpace=wrap;html=1;rotation=15;fillColor=none;" parent="fuyKSAtUqPiDZNVKHJhf-1" vertex="1">
          <mxGeometry x="186.66" y="321.32" width="50.17" height="15" as="geometry" />
        </mxCell>
        <mxCell id="fuyKSAtUqPiDZNVKHJhf-26" value="" style="ellipse;whiteSpace=wrap;html=1;rotation=0;fillColor=none;" parent="fuyKSAtUqPiDZNVKHJhf-1" vertex="1">
          <mxGeometry x="389" y="324.32" width="62.5" height="15" as="geometry" />
        </mxCell>
        <mxCell id="fuyKSAtUqPiDZNVKHJhf-35" value="" style="endArrow=none;html=1;rounded=0;exitX=0.5;exitY=1;exitDx=0;exitDy=0;entryX=0.25;entryY=0;entryDx=0;entryDy=0;strokeWidth=2;" parent="fuyKSAtUqPiDZNVKHJhf-1" source="fuyKSAtUqPiDZNVKHJhf-7" target="fuyKSAtUqPiDZNVKHJhf-34" edge="1">
          <mxGeometry width="50" height="50" relative="1" as="geometry">
            <mxPoint x="425" y="430" as="sourcePoint" />
            <mxPoint x="475" y="380" as="targetPoint" />
          </mxGeometry>
        </mxCell>
        <mxCell id="fuyKSAtUqPiDZNVKHJhf-36" value="Trunk" style="edgeLabel;html=1;align=center;verticalAlign=middle;resizable=0;points=[];" parent="fuyKSAtUqPiDZNVKHJhf-35" vertex="1" connectable="0">
          <mxGeometry x="0.3542" relative="1" as="geometry">
            <mxPoint as="offset" />
          </mxGeometry>
        </mxCell>
        <mxCell id="fuyKSAtUqPiDZNVKHJhf-37" value="" style="endArrow=none;html=1;rounded=0;entryX=0.5;entryY=1;entryDx=0;entryDy=0;exitX=0.5;exitY=0;exitDx=0;exitDy=0;strokeWidth=2;" parent="fuyKSAtUqPiDZNVKHJhf-1" source="fuyKSAtUqPiDZNVKHJhf-33" target="fuyKSAtUqPiDZNVKHJhf-11" edge="1">
          <mxGeometry width="50" height="50" relative="1" as="geometry">
            <mxPoint x="425" y="430" as="sourcePoint" />
            <mxPoint x="475" y="380" as="targetPoint" />
          </mxGeometry>
        </mxCell>
        <mxCell id="VtiJAQJfhtsiqzKNvDHu-0" value="Trunk" style="edgeLabel;html=1;align=center;verticalAlign=middle;resizable=0;points=[];" parent="fuyKSAtUqPiDZNVKHJhf-37" vertex="1" connectable="0">
          <mxGeometry x="0.3543" y="-4" relative="1" as="geometry">
            <mxPoint y="1" as="offset" />
          </mxGeometry>
        </mxCell>
        <mxCell id="fuyKSAtUqPiDZNVKHJhf-39" value="" style="ellipse;whiteSpace=wrap;html=1;rotation=-45;fillColor=none;" parent="fuyKSAtUqPiDZNVKHJhf-1" vertex="1">
          <mxGeometry x="579.65" y="312.71" width="44.41" height="15" as="geometry" />
        </mxCell>
        <mxCell id="fuyKSAtUqPiDZNVKHJhf-41" value="" style="rounded=1;whiteSpace=wrap;html=1;arcSize=5;" parent="fuyKSAtUqPiDZNVKHJhf-1" vertex="1">
          <mxGeometry x="165" y="534" width="292" height="156" as="geometry" />
        </mxCell>
        <mxCell id="fuyKSAtUqPiDZNVKHJhf-44" value="Uplink" style="endArrow=none;html=1;rounded=0;entryX=0.5;entryY=1;entryDx=0;entryDy=0;exitX=0.5;exitY=0;exitDx=0;exitDy=0;" parent="fuyKSAtUqPiDZNVKHJhf-1" source="fuyKSAtUqPiDZNVKHJhf-54" target="fuyKSAtUqPiDZNVKHJhf-42" edge="1">
          <mxGeometry x="-0.1111" y="-5" width="50" height="50" relative="1" as="geometry">
            <mxPoint x="540" y="534" as="sourcePoint" />
            <mxPoint x="385" y="370" as="targetPoint" />
            <Array as="points" />
            <mxPoint as="offset" />
          </mxGeometry>
        </mxCell>
        <mxCell id="fuyKSAtUqPiDZNVKHJhf-46" value="Uplink" style="endArrow=none;html=1;rounded=0;exitX=0.5;exitY=0;exitDx=0;exitDy=0;entryX=0.5;entryY=1;entryDx=0;entryDy=0;" parent="fuyKSAtUqPiDZNVKHJhf-1" source="fuyKSAtUqPiDZNVKHJhf-53" target="fuyKSAtUqPiDZNVKHJhf-43" edge="1">
          <mxGeometry width="50" height="50" relative="1" as="geometry">
            <mxPoint x="242.75" y="529" as="sourcePoint" />
            <mxPoint x="244" y="486" as="targetPoint" />
          </mxGeometry>
        </mxCell>
        <mxCell id="fuyKSAtUqPiDZNVKHJhf-48" value="" style="rounded=1;whiteSpace=wrap;html=1;fillColor=#CCCCFF;arcSize=8;" parent="fuyKSAtUqPiDZNVKHJhf-1" vertex="1">
          <mxGeometry x="175" y="539" width="272" height="141" as="geometry" />
        </mxCell>
        <mxCell id="fuyKSAtUqPiDZNVKHJhf-52" value="VLAN 100" style="rounded=1;whiteSpace=wrap;html=1;" parent="fuyKSAtUqPiDZNVKHJhf-1" vertex="1">
          <mxGeometry x="292" y="148" width="75.25" height="22" as="geometry" />
        </mxCell>
        <mxCell id="fuyKSAtUqPiDZNVKHJhf-53" value="" style="rounded=0;whiteSpace=wrap;html=1;" parent="fuyKSAtUqPiDZNVKHJhf-1" vertex="1">
          <mxGeometry x="231.82999999999998" y="530" width="10" height="10" as="geometry" />
        </mxCell>
        <mxCell id="fuyKSAtUqPiDZNVKHJhf-54" value="" style="rounded=0;whiteSpace=wrap;html=1;" parent="fuyKSAtUqPiDZNVKHJhf-1" vertex="1">
          <mxGeometry x="370.75" y="530" width="10" height="10" as="geometry" />
        </mxCell>
        <mxCell id="fuyKSAtUqPiDZNVKHJhf-58" value="Cisco ASR 9K" style="rounded=1;whiteSpace=wrap;html=1;fontColor=#FFFFFF;fillColor=#009900;" parent="fuyKSAtUqPiDZNVKHJhf-1" vertex="1">
          <mxGeometry x="686.14" y="490" width="120" height="40" as="geometry" />
        </mxCell>
        <mxCell id="fuyKSAtUqPiDZNVKHJhf-67" value="To 三峽機房&lt;br&gt;裸光設備" style="rounded=1;whiteSpace=wrap;html=1;fontColor=#FFFFFF;fillColor=#009900;" parent="fuyKSAtUqPiDZNVKHJhf-1" vertex="1">
          <mxGeometry x="676.86" y="185" width="110.14" height="40" as="geometry" />
        </mxCell>
        <mxCell id="fuyKSAtUqPiDZNVKHJhf-68" value="" style="rounded=0;whiteSpace=wrap;html=1;" parent="fuyKSAtUqPiDZNVKHJhf-1" vertex="1">
          <mxGeometry x="541" y="202" width="10" height="10" as="geometry" />
        </mxCell>
        <mxCell id="fuyKSAtUqPiDZNVKHJhf-69" value="" style="rounded=0;whiteSpace=wrap;html=1;" parent="fuyKSAtUqPiDZNVKHJhf-1" vertex="1">
          <mxGeometry x="671.86" y="202" width="10" height="10" as="geometry" />
        </mxCell>
        <mxCell id="fuyKSAtUqPiDZNVKHJhf-70" value="Trunk" style="endArrow=none;html=1;rounded=0;entryX=1;entryY=0.5;entryDx=0;entryDy=0;exitX=0;exitY=0.5;exitDx=0;exitDy=0;" parent="fuyKSAtUqPiDZNVKHJhf-1" source="fuyKSAtUqPiDZNVKHJhf-69" target="fuyKSAtUqPiDZNVKHJhf-68" edge="1">
          <mxGeometry width="50" height="50" relative="1" as="geometry">
            <mxPoint x="397" y="277" as="sourcePoint" />
            <mxPoint x="447" y="227" as="targetPoint" />
          </mxGeometry>
        </mxCell>
        <mxCell id="5i9tXtPG7bAVj8aUPMnJ-8" value="VLAN 200" style="rounded=1;whiteSpace=wrap;html=1;" parent="fuyKSAtUqPiDZNVKHJhf-1" vertex="1">
          <mxGeometry x="292" y="178" width="75.25" height="22" as="geometry" />
        </mxCell>
        <mxCell id="5i9tXtPG7bAVj8aUPMnJ-9" value="VLAN 300" style="rounded=1;whiteSpace=wrap;html=1;" parent="fuyKSAtUqPiDZNVKHJhf-1" vertex="1">
          <mxGeometry x="292" y="206" width="75.25" height="22" as="geometry" />
        </mxCell>
        <mxCell id="5i9tXtPG7bAVj8aUPMnJ-11" value="VLAN 400" style="rounded=1;whiteSpace=wrap;html=1;" parent="fuyKSAtUqPiDZNVKHJhf-1" vertex="1">
          <mxGeometry x="377.75" y="148" width="75.25" height="22" as="geometry" />
        </mxCell>
        <mxCell id="5i9tXtPG7bAVj8aUPMnJ-12" value="VLAN 500" style="rounded=1;whiteSpace=wrap;html=1;" parent="fuyKSAtUqPiDZNVKHJhf-1" vertex="1">
          <mxGeometry x="377.75" y="178" width="75.25" height="22" as="geometry" />
        </mxCell>
        <mxCell id="5i9tXtPG7bAVj8aUPMnJ-15" value="Aruba 8325-32 Spine VSX" style="text;html=1;align=center;verticalAlign=middle;resizable=0;points=[];autosize=1;strokeColor=none;fillColor=none;" parent="fuyKSAtUqPiDZNVKHJhf-1" vertex="1">
          <mxGeometry x="373" y="114" width="160" height="30" as="geometry" />
        </mxCell>
        <mxCell id="5i9tXtPG7bAVj8aUPMnJ-16" value="VLAN 600" style="rounded=1;whiteSpace=wrap;html=1;" parent="fuyKSAtUqPiDZNVKHJhf-1" vertex="1">
          <mxGeometry x="463" y="148" width="75.25" height="22" as="geometry" />
        </mxCell>
        <mxCell id="5i9tXtPG7bAVj8aUPMnJ-17" value="VLAN 601" style="rounded=1;whiteSpace=wrap;html=1;" parent="fuyKSAtUqPiDZNVKHJhf-1" vertex="1">
          <mxGeometry x="463" y="178" width="75.25" height="22" as="geometry" />
        </mxCell>
        <mxCell id="5i9tXtPG7bAVj8aUPMnJ-18" value="VLAN 4032" style="rounded=1;whiteSpace=wrap;html=1;" parent="fuyKSAtUqPiDZNVKHJhf-1" vertex="1">
          <mxGeometry x="463" y="206" width="75.25" height="22" as="geometry" />
        </mxCell>
        <mxCell id="5i9tXtPG7bAVj8aUPMnJ-19" value="VLAN 4040" style="rounded=1;whiteSpace=wrap;html=1;" parent="fuyKSAtUqPiDZNVKHJhf-1" vertex="1">
          <mxGeometry x="463" y="233" width="75.25" height="22" as="geometry" />
        </mxCell>
        <mxCell id="9Dc1foQv2e6Ppibsc6m8-1" value="Aruba&amp;nbsp;&lt;span style=&quot;caret-color: rgb(255, 255, 255);&quot;&gt;8325-48-it A&lt;/span&gt;" style="text;html=1;align=center;verticalAlign=middle;resizable=0;points=[];autosize=1;strokeColor=none;fillColor=none;" parent="fuyKSAtUqPiDZNVKHJhf-1" vertex="1">
          <mxGeometry x="40" y="324.03" width="120" height="30" as="geometry" />
        </mxCell>
        <mxCell id="9Dc1foQv2e6Ppibsc6m8-2" value="VLAN 100" style="rounded=1;whiteSpace=wrap;html=1;" parent="fuyKSAtUqPiDZNVKHJhf-1" vertex="1">
          <mxGeometry x="53.75" y="360" width="75.25" height="22" as="geometry" />
        </mxCell>
        <mxCell id="9Dc1foQv2e6Ppibsc6m8-3" value="VLAN 200" style="rounded=1;whiteSpace=wrap;html=1;" parent="fuyKSAtUqPiDZNVKHJhf-1" vertex="1">
          <mxGeometry x="53.75" y="390" width="75.25" height="22" as="geometry" />
        </mxCell>
        <mxCell id="9Dc1foQv2e6Ppibsc6m8-4" value="VLAN 300" style="rounded=1;whiteSpace=wrap;html=1;" parent="fuyKSAtUqPiDZNVKHJhf-1" vertex="1">
          <mxGeometry x="53.75" y="418" width="75.25" height="22" as="geometry" />
        </mxCell>
        <mxCell id="9Dc1foQv2e6Ppibsc6m8-6" value="VLAN 400" style="rounded=1;whiteSpace=wrap;html=1;" parent="fuyKSAtUqPiDZNVKHJhf-1" vertex="1">
          <mxGeometry x="139.5" y="360" width="75.25" height="22" as="geometry" />
        </mxCell>
        <mxCell id="9Dc1foQv2e6Ppibsc6m8-7" value="VLAN 500" style="rounded=1;whiteSpace=wrap;html=1;" parent="fuyKSAtUqPiDZNVKHJhf-1" vertex="1">
          <mxGeometry x="139.5" y="390" width="75.25" height="22" as="geometry" />
        </mxCell>
        <mxCell id="9Dc1foQv2e6Ppibsc6m8-8" value="VLAN 600" style="rounded=1;whiteSpace=wrap;html=1;" parent="fuyKSAtUqPiDZNVKHJhf-1" vertex="1">
          <mxGeometry x="224.75" y="360" width="75.25" height="22" as="geometry" />
        </mxCell>
        <mxCell id="9Dc1foQv2e6Ppibsc6m8-10" value="VLAN 4032" style="rounded=1;whiteSpace=wrap;html=1;" parent="fuyKSAtUqPiDZNVKHJhf-1" vertex="1">
          <mxGeometry x="224.75" y="418" width="75.25" height="22" as="geometry" />
        </mxCell>
        <mxCell id="9Dc1foQv2e6Ppibsc6m8-11" value="VLAN 4040" style="rounded=1;whiteSpace=wrap;html=1;" parent="fuyKSAtUqPiDZNVKHJhf-1" vertex="1">
          <mxGeometry x="224.75" y="445" width="75.25" height="22" as="geometry" />
        </mxCell>
        <mxCell id="9Dc1foQv2e6Ppibsc6m8-12" value="VLAN 601" style="rounded=1;whiteSpace=wrap;html=1;" parent="fuyKSAtUqPiDZNVKHJhf-1" vertex="1">
          <mxGeometry x="225" y="390" width="75.25" height="22" as="geometry" />
        </mxCell>
        <mxCell id="9Dc1foQv2e6Ppibsc6m8-13" value="" style="rounded=1;whiteSpace=wrap;html=1;fontColor=#FFFFFF;fillColor=#008cb4;arcSize=6;" parent="fuyKSAtUqPiDZNVKHJhf-1" vertex="1">
          <mxGeometry x="310" y="348" width="255" height="131.29" as="geometry" />
        </mxCell>
        <mxCell id="9Dc1foQv2e6Ppibsc6m8-14" value="VLAN 100" style="rounded=1;whiteSpace=wrap;html=1;" parent="fuyKSAtUqPiDZNVKHJhf-1" vertex="1">
          <mxGeometry x="313.75" y="359.29" width="75.25" height="22" as="geometry" />
        </mxCell>
        <mxCell id="9Dc1foQv2e6Ppibsc6m8-15" value="VLAN 200" style="rounded=1;whiteSpace=wrap;html=1;" parent="fuyKSAtUqPiDZNVKHJhf-1" vertex="1">
          <mxGeometry x="313.75" y="389.29" width="75.25" height="22" as="geometry" />
        </mxCell>
        <mxCell id="9Dc1foQv2e6Ppibsc6m8-16" value="VLAN 300" style="rounded=1;whiteSpace=wrap;html=1;" parent="fuyKSAtUqPiDZNVKHJhf-1" vertex="1">
          <mxGeometry x="313.75" y="417.29" width="75.25" height="22" as="geometry" />
        </mxCell>
        <mxCell id="9Dc1foQv2e6Ppibsc6m8-18" value="VLAN 400" style="rounded=1;whiteSpace=wrap;html=1;" parent="fuyKSAtUqPiDZNVKHJhf-1" vertex="1">
          <mxGeometry x="399.5" y="359.29" width="75.25" height="22" as="geometry" />
        </mxCell>
        <mxCell id="9Dc1foQv2e6Ppibsc6m8-19" value="VLAN 500" style="rounded=1;whiteSpace=wrap;html=1;" parent="fuyKSAtUqPiDZNVKHJhf-1" vertex="1">
          <mxGeometry x="399.5" y="389.29" width="75.25" height="22" as="geometry" />
        </mxCell>
        <mxCell id="9Dc1foQv2e6Ppibsc6m8-20" value="VLAN 600" style="rounded=1;whiteSpace=wrap;html=1;" parent="fuyKSAtUqPiDZNVKHJhf-1" vertex="1">
          <mxGeometry x="484.75" y="359.29" width="75.25" height="22" as="geometry" />
        </mxCell>
        <mxCell id="9Dc1foQv2e6Ppibsc6m8-21" value="VLAN 4032" style="rounded=1;whiteSpace=wrap;html=1;" parent="fuyKSAtUqPiDZNVKHJhf-1" vertex="1">
          <mxGeometry x="484.75" y="417.29" width="75.25" height="22" as="geometry" />
        </mxCell>
        <mxCell id="9Dc1foQv2e6Ppibsc6m8-22" value="VLAN 4040" style="rounded=1;whiteSpace=wrap;html=1;" parent="fuyKSAtUqPiDZNVKHJhf-1" vertex="1">
          <mxGeometry x="484.75" y="444.29" width="75.25" height="22" as="geometry" />
        </mxCell>
        <mxCell id="9Dc1foQv2e6Ppibsc6m8-23" value="VLAN 601" style="rounded=1;whiteSpace=wrap;html=1;" parent="fuyKSAtUqPiDZNVKHJhf-1" vertex="1">
          <mxGeometry x="485" y="389.29" width="75.25" height="22" as="geometry" />
        </mxCell>
        <mxCell id="fuyKSAtUqPiDZNVKHJhf-20" value="" style="rounded=0;whiteSpace=wrap;html=1;" parent="fuyKSAtUqPiDZNVKHJhf-1" vertex="1">
          <mxGeometry x="405" y="344.71" width="10" height="10" as="geometry" />
        </mxCell>
        <mxCell id="fuyKSAtUqPiDZNVKHJhf-21" value="" style="rounded=0;whiteSpace=wrap;html=1;" parent="fuyKSAtUqPiDZNVKHJhf-1" vertex="1">
          <mxGeometry x="425" y="344.71" width="10" height="10" as="geometry" />
        </mxCell>
        <mxCell id="9Dc1foQv2e6Ppibsc6m8-24" value="Aruba&amp;nbsp;&lt;span style=&quot;caret-color: rgb(255, 255, 255);&quot;&gt;8325-48-it B&lt;/span&gt;" style="text;html=1;align=center;verticalAlign=middle;resizable=0;points=[];autosize=1;strokeColor=none;fillColor=none;" parent="fuyKSAtUqPiDZNVKHJhf-1" vertex="1">
          <mxGeometry x="454" y="324.03" width="120" height="30" as="geometry" />
        </mxCell>
        <mxCell id="9Dc1foQv2e6Ppibsc6m8-25" value="" style="rounded=1;whiteSpace=wrap;html=1;arcSize=5;fillColor=#008cb4;" parent="fuyKSAtUqPiDZNVKHJhf-1" vertex="1">
          <mxGeometry x="650" y="348.71000000000004" width="178" height="71.29" as="geometry" />
        </mxCell>
        <mxCell id="9Dc1foQv2e6Ppibsc6m8-39" value="VLAN 600" style="rounded=1;whiteSpace=wrap;html=1;" parent="fuyKSAtUqPiDZNVKHJhf-1" vertex="1">
          <mxGeometry x="657" y="356.71000000000004" width="75.25" height="22" as="geometry" />
        </mxCell>
        <mxCell id="9Dc1foQv2e6Ppibsc6m8-40" value="VLAN 601" style="rounded=1;whiteSpace=wrap;html=1;" parent="fuyKSAtUqPiDZNVKHJhf-1" vertex="1">
          <mxGeometry x="657" y="386.71000000000004" width="75.25" height="22" as="geometry" />
        </mxCell>
        <mxCell id="9Dc1foQv2e6Ppibsc6m8-44" value="VLAN 4032" style="rounded=1;whiteSpace=wrap;html=1;" parent="fuyKSAtUqPiDZNVKHJhf-1" vertex="1">
          <mxGeometry x="747" y="356.71000000000004" width="75.25" height="22" as="geometry" />
        </mxCell>
        <mxCell id="9Dc1foQv2e6Ppibsc6m8-45" value="VLAN 4040" style="rounded=1;whiteSpace=wrap;html=1;" parent="fuyKSAtUqPiDZNVKHJhf-1" vertex="1">
          <mxGeometry x="747" y="386.71000000000004" width="75.25" height="22" as="geometry" />
        </mxCell>
        <mxCell id="fuyKSAtUqPiDZNVKHJhf-33" value="" style="rounded=0;whiteSpace=wrap;html=1;" parent="fuyKSAtUqPiDZNVKHJhf-1" vertex="1">
          <mxGeometry x="685" y="344.03" width="10" height="10" as="geometry" />
        </mxCell>
        <mxCell id="fuyKSAtUqPiDZNVKHJhf-34" value="" style="rounded=0;whiteSpace=wrap;html=1;" parent="fuyKSAtUqPiDZNVKHJhf-1" vertex="1">
          <mxGeometry x="664.14" y="344.03" width="10" height="10" as="geometry" />
        </mxCell>
        <mxCell id="z1gUeEFw3jE-Zm0Mav81-1" value="" style="endArrow=none;html=1;rounded=0;entryX=0.5;entryY=1;entryDx=0;entryDy=0;exitX=0.5;exitY=0;exitDx=0;exitDy=0;" parent="fuyKSAtUqPiDZNVKHJhf-1" source="z1gUeEFw3jE-Zm0Mav81-8" target="z1gUeEFw3jE-Zm0Mav81-5" edge="1">
          <mxGeometry width="50" height="50" relative="1" as="geometry">
            <mxPoint x="722" y="486" as="sourcePoint" />
            <mxPoint x="702" y="424.71000000000004" as="targetPoint" />
          </mxGeometry>
        </mxCell>
        <mxCell id="z1gUeEFw3jE-Zm0Mav81-3" value="" style="endArrow=none;html=1;rounded=0;entryX=0.5;entryY=1;entryDx=0;entryDy=0;exitX=0.5;exitY=0;exitDx=0;exitDy=0;" parent="fuyKSAtUqPiDZNVKHJhf-1" source="z1gUeEFw3jE-Zm0Mav81-7" target="z1gUeEFw3jE-Zm0Mav81-6" edge="1">
          <mxGeometry width="50" height="50" relative="1" as="geometry">
            <mxPoint x="759.3600000000001" y="486" as="sourcePoint" />
            <mxPoint x="782" y="424.71000000000004" as="targetPoint" />
            <Array as="points" />
          </mxGeometry>
        </mxCell>
        <mxCell id="z1gUeEFw3jE-Zm0Mav81-5" value="" style="ellipse;whiteSpace=wrap;html=1;aspect=fixed;" parent="fuyKSAtUqPiDZNVKHJhf-1" vertex="1">
          <mxGeometry x="697" y="414" width="10" height="10" as="geometry" />
        </mxCell>
        <mxCell id="z1gUeEFw3jE-Zm0Mav81-6" value="" style="ellipse;whiteSpace=wrap;html=1;aspect=fixed;" parent="fuyKSAtUqPiDZNVKHJhf-1" vertex="1">
          <mxGeometry x="777" y="414" width="10" height="10" as="geometry" />
        </mxCell>
        <mxCell id="z1gUeEFw3jE-Zm0Mav81-7" value="" style="ellipse;whiteSpace=wrap;html=1;aspect=fixed;" parent="fuyKSAtUqPiDZNVKHJhf-1" vertex="1">
          <mxGeometry x="751.86" y="486" width="10" height="10" as="geometry" />
        </mxCell>
        <mxCell id="z1gUeEFw3jE-Zm0Mav81-8" value="" style="ellipse;whiteSpace=wrap;html=1;aspect=fixed;" parent="fuyKSAtUqPiDZNVKHJhf-1" vertex="1">
          <mxGeometry x="717" y="486" width="10" height="10" as="geometry" />
        </mxCell>
        <mxCell id="0-2itufk6boWX06WZtIz-0" value="PG 200" style="rounded=1;whiteSpace=wrap;html=1;" parent="fuyKSAtUqPiDZNVKHJhf-1" vertex="1">
          <mxGeometry x="190.38" y="580.5" width="75.25" height="22" as="geometry" />
        </mxCell>
        <mxCell id="0-2itufk6boWX06WZtIz-1" value="PG 300" style="rounded=1;whiteSpace=wrap;html=1;" parent="fuyKSAtUqPiDZNVKHJhf-1" vertex="1">
          <mxGeometry x="190.38" y="610.5" width="75.25" height="22" as="geometry" />
        </mxCell>
        <mxCell id="0-2itufk6boWX06WZtIz-2" value="PG 400" style="rounded=1;whiteSpace=wrap;html=1;" parent="fuyKSAtUqPiDZNVKHJhf-1" vertex="1">
          <mxGeometry x="275.5" y="550.5" width="75.25" height="22" as="geometry" />
        </mxCell>
        <mxCell id="0-2itufk6boWX06WZtIz-3" value="PG 500" style="rounded=1;whiteSpace=wrap;html=1;" parent="fuyKSAtUqPiDZNVKHJhf-1" vertex="1">
          <mxGeometry x="275.5" y="580.5" width="75.25" height="22" as="geometry" />
        </mxCell>
        <mxCell id="0-2itufk6boWX06WZtIz-4" value="PG 600" style="rounded=1;whiteSpace=wrap;html=1;" parent="fuyKSAtUqPiDZNVKHJhf-1" vertex="1">
          <mxGeometry x="360.25" y="550.5" width="75.25" height="22" as="geometry" />
        </mxCell>
        <mxCell id="0-2itufk6boWX06WZtIz-5" value="PG 601" style="rounded=1;whiteSpace=wrap;html=1;" parent="fuyKSAtUqPiDZNVKHJhf-1" vertex="1">
          <mxGeometry x="360.75" y="580.5" width="75.25" height="22" as="geometry" />
        </mxCell>
        <mxCell id="fuyKSAtUqPiDZNVKHJhf-50" value="PG 100" style="rounded=1;whiteSpace=wrap;html=1;" parent="fuyKSAtUqPiDZNVKHJhf-1" vertex="1">
          <mxGeometry x="190.38" y="550.5" width="75.25" height="22" as="geometry" />
        </mxCell>
        <mxCell id="fuyKSAtUqPiDZNVKHJhf-42" value="" style="rounded=0;whiteSpace=wrap;html=1;" parent="fuyKSAtUqPiDZNVKHJhf-1" vertex="1">
          <mxGeometry x="370.75" y="476" width="10" height="10" as="geometry" />
        </mxCell>
        <mxCell id="fuyKSAtUqPiDZNVKHJhf-43" value="" style="rounded=0;whiteSpace=wrap;html=1;" parent="fuyKSAtUqPiDZNVKHJhf-1" vertex="1">
          <mxGeometry x="232" y="476" width="10" height="10" as="geometry" />
        </mxCell>
        <mxCell id="0-2itufk6boWX06WZtIz-8" value="Aruba&amp;nbsp;&lt;span style=&quot;caret-color: rgb(255, 255, 255);&quot;&gt;8325-48-it Border VSX&lt;/span&gt;" style="text;html=1;align=center;verticalAlign=middle;resizable=0;points=[];autosize=1;strokeColor=none;fillColor=none;" parent="fuyKSAtUqPiDZNVKHJhf-1" vertex="1">
          <mxGeometry x="687" y="324.03" width="180" height="30" as="geometry" />
        </mxCell>
        <mxCell id="0-2itufk6boWX06WZtIz-9" value="ESXi x 8" style="text;html=1;align=center;verticalAlign=middle;resizable=0;points=[];autosize=1;strokeColor=none;fillColor=none;" parent="fuyKSAtUqPiDZNVKHJhf-1" vertex="1">
          <mxGeometry x="399.5" y="700.5" width="70" height="30" as="geometry" />
        </mxCell>
        <mxCell id="8dVIGSRGv4jzgewoYVxt-0" value="VDS" style="text;html=1;align=center;verticalAlign=middle;resizable=0;points=[];autosize=1;strokeColor=none;fillColor=none;fontColor=#6600CC;" parent="fuyKSAtUqPiDZNVKHJhf-1" vertex="1">
          <mxGeometry x="190" y="650" width="50" height="30" as="geometry" />
        </mxCell>
        <mxCell id="hcL_S25S3O1EwVxIQx0a-0" value="x8" style="text;html=1;align=center;verticalAlign=middle;resizable=0;points=[];autosize=1;strokeColor=none;fillColor=none;" parent="fuyKSAtUqPiDZNVKHJhf-1" vertex="1">
          <mxGeometry x="380.75" y="510" width="40" height="30" as="geometry" />
        </mxCell>
        <mxCell id="CE44EH3_z6L7RxmArTaw-0" value="" style="edgeStyle=orthogonalEdgeStyle;rounded=0;orthogonalLoop=1;jettySize=auto;html=1;" parent="fuyKSAtUqPiDZNVKHJhf-1" source="hcL_S25S3O1EwVxIQx0a-1" target="fuyKSAtUqPiDZNVKHJhf-50" edge="1">
          <mxGeometry relative="1" as="geometry" />
        </mxCell>
        <mxCell id="hcL_S25S3O1EwVxIQx0a-1" value="x8" style="text;html=1;align=center;verticalAlign=middle;resizable=0;points=[];autosize=1;strokeColor=none;fillColor=none;" parent="fuyKSAtUqPiDZNVKHJhf-1" vertex="1">
          <mxGeometry x="241" y="510" width="40" height="30" as="geometry" />
        </mxCell>
        <mxCell id="dqQirkz5Iyt6pEnvXloo-0" value="&lt;p style=&quot;line-height: 120%;&quot;&gt;PG All&lt;/p&gt;" style="rounded=1;whiteSpace=wrap;html=1;verticalAlign=middle;labelPosition=center;verticalLabelPosition=middle;align=center;spacingTop=-27;" parent="fuyKSAtUqPiDZNVKHJhf-1" vertex="1">
          <mxGeometry x="275" y="610.5" width="156" height="59.5" as="geometry" />
        </mxCell>
        <mxCell id="dqQirkz5Iyt6pEnvXloo-1" value="SG VLAN 4032" style="rounded=1;whiteSpace=wrap;html=1;" parent="fuyKSAtUqPiDZNVKHJhf-1" vertex="1">
          <mxGeometry x="278" y="635.5" width="75.25" height="31" as="geometry" />
        </mxCell>
        <mxCell id="dqQirkz5Iyt6pEnvXloo-2" value="SG VLAN 4040" style="rounded=1;whiteSpace=wrap;html=1;" parent="fuyKSAtUqPiDZNVKHJhf-1" vertex="1">
          <mxGeometry x="355" y="635.5" width="73.5" height="31" as="geometry" />
        </mxCell>
      </root>
    </mxGraphModel>
  </diagram>
  <diagram name="三峽機房VLAN圖" id="Cv6J7LOBKKtvTCUd6AXZ">
    <mxGraphModel dx="1233" dy="785" grid="1" gridSize="10" guides="1" tooltips="1" connect="1" arrows="1" fold="1" page="1" pageScale="1" pageWidth="1169" pageHeight="827" math="0" shadow="0">
      <root>
        <mxCell id="WJUggwcmlE_ixNE-Wr3F-0" />
        <mxCell id="WJUggwcmlE_ixNE-Wr3F-1" parent="WJUggwcmlE_ixNE-Wr3F-0" />
        <mxCell id="WJUggwcmlE_ixNE-Wr3F-2" value="" style="rounded=1;whiteSpace=wrap;html=1;arcSize=5;" parent="WJUggwcmlE_ixNE-Wr3F-1" vertex="1">
          <mxGeometry x="170" y="550.5" width="287" height="150" as="geometry" />
        </mxCell>
        <mxCell id="WJUggwcmlE_ixNE-Wr3F-3" value="" style="rounded=1;whiteSpace=wrap;html=1;arcSize=5;fillColor=#008cb4;" parent="WJUggwcmlE_ixNE-Wr3F-1" vertex="1">
          <mxGeometry x="275" y="140" width="260" height="130" as="geometry" />
        </mxCell>
        <mxCell id="WJUggwcmlE_ixNE-Wr3F-4" value="" style="rounded=0;whiteSpace=wrap;html=1;" parent="WJUggwcmlE_ixNE-Wr3F-1" vertex="1">
          <mxGeometry x="303" y="265" width="10" height="10" as="geometry" />
        </mxCell>
        <mxCell id="WJUggwcmlE_ixNE-Wr3F-5" value="" style="rounded=0;whiteSpace=wrap;html=1;" parent="WJUggwcmlE_ixNE-Wr3F-1" vertex="1">
          <mxGeometry x="323" y="265" width="10" height="10" as="geometry" />
        </mxCell>
        <mxCell id="WJUggwcmlE_ixNE-Wr3F-6" value="" style="rounded=0;whiteSpace=wrap;html=1;" parent="WJUggwcmlE_ixNE-Wr3F-1" vertex="1">
          <mxGeometry x="343" y="265" width="10" height="10" as="geometry" />
        </mxCell>
        <mxCell id="WJUggwcmlE_ixNE-Wr3F-7" value="" style="rounded=0;whiteSpace=wrap;html=1;" parent="WJUggwcmlE_ixNE-Wr3F-1" vertex="1">
          <mxGeometry x="453" y="265" width="10" height="10" as="geometry" />
        </mxCell>
        <mxCell id="WJUggwcmlE_ixNE-Wr3F-8" value="" style="rounded=0;whiteSpace=wrap;html=1;" parent="WJUggwcmlE_ixNE-Wr3F-1" vertex="1">
          <mxGeometry x="473" y="265" width="10" height="10" as="geometry" />
        </mxCell>
        <mxCell id="WJUggwcmlE_ixNE-Wr3F-9" value="" style="rounded=0;whiteSpace=wrap;html=1;" parent="WJUggwcmlE_ixNE-Wr3F-1" vertex="1">
          <mxGeometry x="493" y="265" width="10" height="10" as="geometry" />
        </mxCell>
        <mxCell id="WJUggwcmlE_ixNE-Wr3F-10" value="Trunk" style="endArrow=none;html=1;rounded=0;entryX=0.5;entryY=1;entryDx=0;entryDy=0;exitX=0.5;exitY=0;exitDx=0;exitDy=0;strokeWidth=2;" parent="WJUggwcmlE_ixNE-Wr3F-1" source="WJUggwcmlE_ixNE-Wr3F-12" target="WJUggwcmlE_ixNE-Wr3F-4" edge="1">
          <mxGeometry x="0.1406" y="5" width="50" height="50" relative="1" as="geometry">
            <mxPoint x="165" y="325" as="sourcePoint" />
            <mxPoint x="215" y="275" as="targetPoint" />
            <Array as="points" />
            <mxPoint as="offset" />
          </mxGeometry>
        </mxCell>
        <mxCell id="WJUggwcmlE_ixNE-Wr3F-11" value="" style="rounded=1;whiteSpace=wrap;html=1;fontColor=#FFFFFF;fillColor=#008cb4;arcSize=6;" parent="WJUggwcmlE_ixNE-Wr3F-1" vertex="1">
          <mxGeometry x="40" y="348.71" width="255" height="131.29" as="geometry" />
        </mxCell>
        <mxCell id="WJUggwcmlE_ixNE-Wr3F-12" value="" style="rounded=0;whiteSpace=wrap;html=1;" parent="WJUggwcmlE_ixNE-Wr3F-1" vertex="1">
          <mxGeometry x="150" y="344.71" width="10" height="10" as="geometry" />
        </mxCell>
        <mxCell id="WJUggwcmlE_ixNE-Wr3F-13" value="" style="rounded=0;whiteSpace=wrap;html=1;" parent="WJUggwcmlE_ixNE-Wr3F-1" vertex="1">
          <mxGeometry x="170" y="344.71" width="10" height="10" as="geometry" />
        </mxCell>
        <mxCell id="WJUggwcmlE_ixNE-Wr3F-14" value="Trunk" style="endArrow=none;html=1;rounded=0;entryX=0.5;entryY=1;entryDx=0;entryDy=0;exitX=0.5;exitY=0;exitDx=0;exitDy=0;strokeWidth=2;" parent="WJUggwcmlE_ixNE-Wr3F-1" source="WJUggwcmlE_ixNE-Wr3F-13" target="WJUggwcmlE_ixNE-Wr3F-7" edge="1">
          <mxGeometry x="-0.0437" y="2" width="50" height="50" relative="1" as="geometry">
            <mxPoint x="195" y="410" as="sourcePoint" />
            <mxPoint x="220" y="285" as="targetPoint" />
            <Array as="points">
              <mxPoint x="320" y="310" />
            </Array>
            <mxPoint as="offset" />
          </mxGeometry>
        </mxCell>
        <mxCell id="WJUggwcmlE_ixNE-Wr3F-15" value="Trunk" style="endArrow=none;html=1;rounded=0;entryX=0.5;entryY=1;entryDx=0;entryDy=0;exitX=0.25;exitY=0;exitDx=0;exitDy=0;strokeWidth=2;" parent="WJUggwcmlE_ixNE-Wr3F-1" source="WJUggwcmlE_ixNE-Wr3F-81" target="WJUggwcmlE_ixNE-Wr3F-5" edge="1">
          <mxGeometry x="-0.25" y="2" width="50" height="50" relative="1" as="geometry">
            <mxPoint x="195" y="436" as="sourcePoint" />
            <mxPoint x="230" y="295" as="targetPoint" />
            <Array as="points" />
            <mxPoint as="offset" />
          </mxGeometry>
        </mxCell>
        <mxCell id="WJUggwcmlE_ixNE-Wr3F-16" value="Trunk" style="endArrow=none;html=1;rounded=0;entryX=0.25;entryY=1;entryDx=0;entryDy=0;exitX=0.5;exitY=0;exitDx=0;exitDy=0;strokeWidth=2;" parent="WJUggwcmlE_ixNE-Wr3F-1" source="WJUggwcmlE_ixNE-Wr3F-82" target="WJUggwcmlE_ixNE-Wr3F-8" edge="1">
          <mxGeometry x="-0.2875" y="1" width="50" height="50" relative="1" as="geometry">
            <mxPoint x="205" y="446" as="sourcePoint" />
            <mxPoint x="240" y="305" as="targetPoint" />
            <Array as="points">
              <mxPoint x="450" y="310" />
            </Array>
            <mxPoint as="offset" />
          </mxGeometry>
        </mxCell>
        <mxCell id="WJUggwcmlE_ixNE-Wr3F-17" value="" style="ellipse;whiteSpace=wrap;html=1;rotation=15;fillColor=none;" parent="WJUggwcmlE_ixNE-Wr3F-1" vertex="1">
          <mxGeometry x="176.66" y="321.32" width="50.17" height="15" as="geometry" />
        </mxCell>
        <mxCell id="WJUggwcmlE_ixNE-Wr3F-18" value="" style="ellipse;whiteSpace=wrap;html=1;rotation=0;fillColor=none;" parent="WJUggwcmlE_ixNE-Wr3F-1" vertex="1">
          <mxGeometry x="379" y="324.32" width="62.5" height="15" as="geometry" />
        </mxCell>
        <mxCell id="WJUggwcmlE_ixNE-Wr3F-19" value="Trunk" style="endArrow=none;html=1;rounded=0;exitX=0.5;exitY=1;exitDx=0;exitDy=0;entryX=0.25;entryY=0;entryDx=0;entryDy=0;strokeWidth=2;" parent="WJUggwcmlE_ixNE-Wr3F-1" source="WJUggwcmlE_ixNE-Wr3F-6" target="WJUggwcmlE_ixNE-Wr3F-90" edge="1">
          <mxGeometry width="50" height="50" relative="1" as="geometry">
            <mxPoint x="415" y="430" as="sourcePoint" />
            <mxPoint x="465" y="380" as="targetPoint" />
            <Array as="points">
              <mxPoint x="510" y="310" />
            </Array>
          </mxGeometry>
        </mxCell>
        <mxCell id="WJUggwcmlE_ixNE-Wr3F-21" value="Trunk" style="endArrow=none;html=1;rounded=0;entryX=0.5;entryY=1;entryDx=0;entryDy=0;exitX=0.5;exitY=0;exitDx=0;exitDy=0;strokeWidth=2;" parent="WJUggwcmlE_ixNE-Wr3F-1" source="WJUggwcmlE_ixNE-Wr3F-89" target="WJUggwcmlE_ixNE-Wr3F-9" edge="1">
          <mxGeometry x="0.3133" y="1" width="50" height="50" relative="1" as="geometry">
            <mxPoint x="415" y="430" as="sourcePoint" />
            <mxPoint x="465" y="380" as="targetPoint" />
            <mxPoint as="offset" />
          </mxGeometry>
        </mxCell>
        <mxCell id="WJUggwcmlE_ixNE-Wr3F-23" value="" style="ellipse;whiteSpace=wrap;html=1;rotation=-45;fillColor=none;" parent="WJUggwcmlE_ixNE-Wr3F-1" vertex="1">
          <mxGeometry x="569.65" y="312.71" width="44.41" height="15" as="geometry" />
        </mxCell>
        <mxCell id="WJUggwcmlE_ixNE-Wr3F-24" value="" style="rounded=1;whiteSpace=wrap;html=1;arcSize=5;" parent="WJUggwcmlE_ixNE-Wr3F-1" vertex="1">
          <mxGeometry x="155" y="534" width="292" height="156" as="geometry" />
        </mxCell>
        <mxCell id="WJUggwcmlE_ixNE-Wr3F-25" value="Uplink" style="endArrow=none;html=1;rounded=0;exitX=0.5;exitY=0;exitDx=0;exitDy=0;" parent="WJUggwcmlE_ixNE-Wr3F-1" source="WJUggwcmlE_ixNE-Wr3F-32" edge="1">
          <mxGeometry x="0.0228" width="50" height="50" relative="1" as="geometry">
            <mxPoint x="325" y="420" as="sourcePoint" />
            <mxPoint x="366" y="486" as="targetPoint" />
            <mxPoint as="offset" />
          </mxGeometry>
        </mxCell>
        <mxCell id="WJUggwcmlE_ixNE-Wr3F-27" value="Uplink" style="endArrow=none;html=1;rounded=0;exitX=0.5;exitY=0;exitDx=0;exitDy=0;" parent="WJUggwcmlE_ixNE-Wr3F-1" source="WJUggwcmlE_ixNE-Wr3F-31" edge="1">
          <mxGeometry width="50" height="50" relative="1" as="geometry">
            <mxPoint x="174.71" y="429.71" as="sourcePoint" />
            <mxPoint x="227" y="486" as="targetPoint" />
          </mxGeometry>
        </mxCell>
        <mxCell id="WJUggwcmlE_ixNE-Wr3F-29" value="" style="rounded=1;whiteSpace=wrap;html=1;fillColor=#CCCCFF;arcSize=8;" parent="WJUggwcmlE_ixNE-Wr3F-1" vertex="1">
          <mxGeometry x="165" y="539" width="272" height="141" as="geometry" />
        </mxCell>
        <mxCell id="WJUggwcmlE_ixNE-Wr3F-30" value="VLAN 100" style="rounded=1;whiteSpace=wrap;html=1;" parent="WJUggwcmlE_ixNE-Wr3F-1" vertex="1">
          <mxGeometry x="282" y="148" width="75.25" height="22" as="geometry" />
        </mxCell>
        <mxCell id="WJUggwcmlE_ixNE-Wr3F-31" value="" style="rounded=0;whiteSpace=wrap;html=1;" parent="WJUggwcmlE_ixNE-Wr3F-1" vertex="1">
          <mxGeometry x="222" y="530" width="10" height="10" as="geometry" />
        </mxCell>
        <mxCell id="WJUggwcmlE_ixNE-Wr3F-32" value="" style="rounded=0;whiteSpace=wrap;html=1;" parent="WJUggwcmlE_ixNE-Wr3F-1" vertex="1">
          <mxGeometry x="360.75" y="530" width="10" height="10" as="geometry" />
        </mxCell>
        <mxCell id="WJUggwcmlE_ixNE-Wr3F-33" value="Cisco ASR 9K" style="rounded=1;whiteSpace=wrap;html=1;fontColor=#FFFFFF;fillColor=#009900;" parent="WJUggwcmlE_ixNE-Wr3F-1" vertex="1">
          <mxGeometry x="676.14" y="490" width="120" height="40" as="geometry" />
        </mxCell>
        <mxCell id="WJUggwcmlE_ixNE-Wr3F-34" value="To 科大機房&lt;br&gt;裸光設備" style="rounded=1;whiteSpace=wrap;html=1;fontColor=#FFFFFF;fillColor=#009900;" parent="WJUggwcmlE_ixNE-Wr3F-1" vertex="1">
          <mxGeometry x="35" y="184" width="110" height="45" as="geometry" />
        </mxCell>
        <mxCell id="WJUggwcmlE_ixNE-Wr3F-52" value="VLAN 200" style="rounded=1;whiteSpace=wrap;html=1;" parent="WJUggwcmlE_ixNE-Wr3F-1" vertex="1">
          <mxGeometry x="282" y="178" width="75.25" height="22" as="geometry" />
        </mxCell>
        <mxCell id="WJUggwcmlE_ixNE-Wr3F-53" value="VLAN 300" style="rounded=1;whiteSpace=wrap;html=1;" parent="WJUggwcmlE_ixNE-Wr3F-1" vertex="1">
          <mxGeometry x="282" y="206" width="75.25" height="22" as="geometry" />
        </mxCell>
        <mxCell id="WJUggwcmlE_ixNE-Wr3F-54" value="VLAN 400" style="rounded=1;whiteSpace=wrap;html=1;" parent="WJUggwcmlE_ixNE-Wr3F-1" vertex="1">
          <mxGeometry x="367.75" y="148" width="75.25" height="22" as="geometry" />
        </mxCell>
        <mxCell id="WJUggwcmlE_ixNE-Wr3F-55" value="VLAN 500" style="rounded=1;whiteSpace=wrap;html=1;" parent="WJUggwcmlE_ixNE-Wr3F-1" vertex="1">
          <mxGeometry x="367.75" y="178" width="75.25" height="22" as="geometry" />
        </mxCell>
        <mxCell id="WJUggwcmlE_ixNE-Wr3F-56" value="Aruba 8325-32 Spine VSX" style="text;html=1;align=center;verticalAlign=middle;resizable=0;points=[];autosize=1;strokeColor=none;fillColor=none;" parent="WJUggwcmlE_ixNE-Wr3F-1" vertex="1">
          <mxGeometry x="363" y="114" width="160" height="30" as="geometry" />
        </mxCell>
        <mxCell id="WJUggwcmlE_ixNE-Wr3F-57" value="VLAN 602" style="rounded=1;whiteSpace=wrap;html=1;" parent="WJUggwcmlE_ixNE-Wr3F-1" vertex="1">
          <mxGeometry x="453" y="148" width="75.25" height="22" as="geometry" />
        </mxCell>
        <mxCell id="WJUggwcmlE_ixNE-Wr3F-58" value="VLAN 603" style="rounded=1;whiteSpace=wrap;html=1;" parent="WJUggwcmlE_ixNE-Wr3F-1" vertex="1">
          <mxGeometry x="453" y="178" width="75.25" height="22" as="geometry" />
        </mxCell>
        <mxCell id="WJUggwcmlE_ixNE-Wr3F-59" value="VLAN 4036" style="rounded=1;whiteSpace=wrap;html=1;" parent="WJUggwcmlE_ixNE-Wr3F-1" vertex="1">
          <mxGeometry x="453" y="206" width="75.25" height="22" as="geometry" />
        </mxCell>
        <mxCell id="WJUggwcmlE_ixNE-Wr3F-60" value="VLAN 4044" style="rounded=1;whiteSpace=wrap;html=1;" parent="WJUggwcmlE_ixNE-Wr3F-1" vertex="1">
          <mxGeometry x="453" y="233" width="75.25" height="22" as="geometry" />
        </mxCell>
        <mxCell id="WJUggwcmlE_ixNE-Wr3F-61" value="Aruba&amp;nbsp;&lt;span style=&quot;caret-color: rgb(255, 255, 255);&quot;&gt;8325-48-it A&lt;/span&gt;" style="text;html=1;align=center;verticalAlign=middle;resizable=0;points=[];autosize=1;strokeColor=none;fillColor=none;" parent="WJUggwcmlE_ixNE-Wr3F-1" vertex="1">
          <mxGeometry x="30" y="324.03" width="120" height="30" as="geometry" />
        </mxCell>
        <mxCell id="WJUggwcmlE_ixNE-Wr3F-62" value="VLAN 100" style="rounded=1;whiteSpace=wrap;html=1;" parent="WJUggwcmlE_ixNE-Wr3F-1" vertex="1">
          <mxGeometry x="43.75" y="360" width="75.25" height="22" as="geometry" />
        </mxCell>
        <mxCell id="WJUggwcmlE_ixNE-Wr3F-63" value="VLAN 200" style="rounded=1;whiteSpace=wrap;html=1;" parent="WJUggwcmlE_ixNE-Wr3F-1" vertex="1">
          <mxGeometry x="43.75" y="390" width="75.25" height="22" as="geometry" />
        </mxCell>
        <mxCell id="WJUggwcmlE_ixNE-Wr3F-64" value="VLAN 300" style="rounded=1;whiteSpace=wrap;html=1;" parent="WJUggwcmlE_ixNE-Wr3F-1" vertex="1">
          <mxGeometry x="43.75" y="418" width="75.25" height="22" as="geometry" />
        </mxCell>
        <mxCell id="WJUggwcmlE_ixNE-Wr3F-65" value="VLAN 400" style="rounded=1;whiteSpace=wrap;html=1;" parent="WJUggwcmlE_ixNE-Wr3F-1" vertex="1">
          <mxGeometry x="129.5" y="360" width="75.25" height="22" as="geometry" />
        </mxCell>
        <mxCell id="WJUggwcmlE_ixNE-Wr3F-66" value="VLAN 500" style="rounded=1;whiteSpace=wrap;html=1;" parent="WJUggwcmlE_ixNE-Wr3F-1" vertex="1">
          <mxGeometry x="129.5" y="390" width="75.25" height="22" as="geometry" />
        </mxCell>
        <mxCell id="WJUggwcmlE_ixNE-Wr3F-67" value="VLAN 602" style="rounded=1;whiteSpace=wrap;html=1;" parent="WJUggwcmlE_ixNE-Wr3F-1" vertex="1">
          <mxGeometry x="214.75" y="360" width="75.25" height="22" as="geometry" />
        </mxCell>
        <mxCell id="WJUggwcmlE_ixNE-Wr3F-68" value="VLAN 4036" style="rounded=1;whiteSpace=wrap;html=1;" parent="WJUggwcmlE_ixNE-Wr3F-1" vertex="1">
          <mxGeometry x="214.75" y="418" width="75.25" height="22" as="geometry" />
        </mxCell>
        <mxCell id="WJUggwcmlE_ixNE-Wr3F-69" value="VLAN 4044" style="rounded=1;whiteSpace=wrap;html=1;" parent="WJUggwcmlE_ixNE-Wr3F-1" vertex="1">
          <mxGeometry x="214.75" y="445" width="75.25" height="22" as="geometry" />
        </mxCell>
        <mxCell id="WJUggwcmlE_ixNE-Wr3F-70" value="VLAN 603" style="rounded=1;whiteSpace=wrap;html=1;" parent="WJUggwcmlE_ixNE-Wr3F-1" vertex="1">
          <mxGeometry x="215" y="390" width="75.25" height="22" as="geometry" />
        </mxCell>
        <mxCell id="WJUggwcmlE_ixNE-Wr3F-71" value="" style="rounded=1;whiteSpace=wrap;html=1;fontColor=#FFFFFF;fillColor=#008cb4;arcSize=6;" parent="WJUggwcmlE_ixNE-Wr3F-1" vertex="1">
          <mxGeometry x="300" y="348" width="255" height="131.29" as="geometry" />
        </mxCell>
        <mxCell id="WJUggwcmlE_ixNE-Wr3F-72" value="VLAN 100" style="rounded=1;whiteSpace=wrap;html=1;" parent="WJUggwcmlE_ixNE-Wr3F-1" vertex="1">
          <mxGeometry x="303.75" y="359.29" width="75.25" height="22" as="geometry" />
        </mxCell>
        <mxCell id="WJUggwcmlE_ixNE-Wr3F-73" value="VLAN 200" style="rounded=1;whiteSpace=wrap;html=1;" parent="WJUggwcmlE_ixNE-Wr3F-1" vertex="1">
          <mxGeometry x="303.75" y="389.29" width="75.25" height="22" as="geometry" />
        </mxCell>
        <mxCell id="WJUggwcmlE_ixNE-Wr3F-74" value="VLAN 300" style="rounded=1;whiteSpace=wrap;html=1;" parent="WJUggwcmlE_ixNE-Wr3F-1" vertex="1">
          <mxGeometry x="303.75" y="417.29" width="75.25" height="22" as="geometry" />
        </mxCell>
        <mxCell id="WJUggwcmlE_ixNE-Wr3F-75" value="VLAN 400" style="rounded=1;whiteSpace=wrap;html=1;" parent="WJUggwcmlE_ixNE-Wr3F-1" vertex="1">
          <mxGeometry x="389.5" y="359.29" width="75.25" height="22" as="geometry" />
        </mxCell>
        <mxCell id="WJUggwcmlE_ixNE-Wr3F-76" value="VLAN 500" style="rounded=1;whiteSpace=wrap;html=1;" parent="WJUggwcmlE_ixNE-Wr3F-1" vertex="1">
          <mxGeometry x="389.5" y="389.29" width="75.25" height="22" as="geometry" />
        </mxCell>
        <mxCell id="WJUggwcmlE_ixNE-Wr3F-77" value="VLAN 602" style="rounded=1;whiteSpace=wrap;html=1;" parent="WJUggwcmlE_ixNE-Wr3F-1" vertex="1">
          <mxGeometry x="474.75" y="359.29" width="75.25" height="22" as="geometry" />
        </mxCell>
        <mxCell id="WJUggwcmlE_ixNE-Wr3F-78" value="VLAN 4036" style="rounded=1;whiteSpace=wrap;html=1;" parent="WJUggwcmlE_ixNE-Wr3F-1" vertex="1">
          <mxGeometry x="474.75" y="417.29" width="75.25" height="22" as="geometry" />
        </mxCell>
        <mxCell id="WJUggwcmlE_ixNE-Wr3F-79" value="VLAN 4044" style="rounded=1;whiteSpace=wrap;html=1;" parent="WJUggwcmlE_ixNE-Wr3F-1" vertex="1">
          <mxGeometry x="474.75" y="444.29" width="75.25" height="22" as="geometry" />
        </mxCell>
        <mxCell id="WJUggwcmlE_ixNE-Wr3F-80" value="VLAN 603" style="rounded=1;whiteSpace=wrap;html=1;" parent="WJUggwcmlE_ixNE-Wr3F-1" vertex="1">
          <mxGeometry x="475" y="389.29" width="75.25" height="22" as="geometry" />
        </mxCell>
        <mxCell id="WJUggwcmlE_ixNE-Wr3F-81" value="" style="rounded=0;whiteSpace=wrap;html=1;" parent="WJUggwcmlE_ixNE-Wr3F-1" vertex="1">
          <mxGeometry x="395" y="344.71" width="10" height="10" as="geometry" />
        </mxCell>
        <mxCell id="WJUggwcmlE_ixNE-Wr3F-82" value="" style="rounded=0;whiteSpace=wrap;html=1;" parent="WJUggwcmlE_ixNE-Wr3F-1" vertex="1">
          <mxGeometry x="415" y="344.71" width="10" height="10" as="geometry" />
        </mxCell>
        <mxCell id="WJUggwcmlE_ixNE-Wr3F-83" value="Aruba&amp;nbsp;&lt;span style=&quot;caret-color: rgb(255, 255, 255);&quot;&gt;8325-48-it B&lt;/span&gt;" style="text;html=1;align=center;verticalAlign=middle;resizable=0;points=[];autosize=1;strokeColor=none;fillColor=none;" parent="WJUggwcmlE_ixNE-Wr3F-1" vertex="1">
          <mxGeometry x="444" y="324.03" width="120" height="30" as="geometry" />
        </mxCell>
        <mxCell id="WJUggwcmlE_ixNE-Wr3F-84" value="" style="rounded=1;whiteSpace=wrap;html=1;arcSize=5;fillColor=#008cb4;" parent="WJUggwcmlE_ixNE-Wr3F-1" vertex="1">
          <mxGeometry x="640" y="348.71000000000004" width="178" height="71.29" as="geometry" />
        </mxCell>
        <mxCell id="WJUggwcmlE_ixNE-Wr3F-85" value="VLAN 602" style="rounded=1;whiteSpace=wrap;html=1;" parent="WJUggwcmlE_ixNE-Wr3F-1" vertex="1">
          <mxGeometry x="647" y="356.71000000000004" width="75.25" height="22" as="geometry" />
        </mxCell>
        <mxCell id="WJUggwcmlE_ixNE-Wr3F-86" value="VLAN 603" style="rounded=1;whiteSpace=wrap;html=1;" parent="WJUggwcmlE_ixNE-Wr3F-1" vertex="1">
          <mxGeometry x="647" y="386.71000000000004" width="75.25" height="22" as="geometry" />
        </mxCell>
        <mxCell id="WJUggwcmlE_ixNE-Wr3F-87" value="VLAN 4036" style="rounded=1;whiteSpace=wrap;html=1;" parent="WJUggwcmlE_ixNE-Wr3F-1" vertex="1">
          <mxGeometry x="737" y="356.71000000000004" width="75.25" height="22" as="geometry" />
        </mxCell>
        <mxCell id="WJUggwcmlE_ixNE-Wr3F-88" value="VLAN 4044" style="rounded=1;whiteSpace=wrap;html=1;" parent="WJUggwcmlE_ixNE-Wr3F-1" vertex="1">
          <mxGeometry x="737" y="386.71000000000004" width="75.25" height="22" as="geometry" />
        </mxCell>
        <mxCell id="WJUggwcmlE_ixNE-Wr3F-89" value="" style="rounded=0;whiteSpace=wrap;html=1;" parent="WJUggwcmlE_ixNE-Wr3F-1" vertex="1">
          <mxGeometry x="675" y="344.03" width="10" height="10" as="geometry" />
        </mxCell>
        <mxCell id="WJUggwcmlE_ixNE-Wr3F-90" value="" style="rounded=0;whiteSpace=wrap;html=1;" parent="WJUggwcmlE_ixNE-Wr3F-1" vertex="1">
          <mxGeometry x="654.14" y="344.03" width="10" height="10" as="geometry" />
        </mxCell>
        <mxCell id="WJUggwcmlE_ixNE-Wr3F-91" value="" style="endArrow=none;html=1;rounded=0;entryX=0.5;entryY=1;entryDx=0;entryDy=0;exitX=0.5;exitY=0;exitDx=0;exitDy=0;" parent="WJUggwcmlE_ixNE-Wr3F-1" source="WJUggwcmlE_ixNE-Wr3F-96" target="WJUggwcmlE_ixNE-Wr3F-93" edge="1">
          <mxGeometry width="50" height="50" relative="1" as="geometry">
            <mxPoint x="712" y="486" as="sourcePoint" />
            <mxPoint x="692" y="424.71000000000004" as="targetPoint" />
          </mxGeometry>
        </mxCell>
        <mxCell id="WJUggwcmlE_ixNE-Wr3F-92" value="" style="endArrow=none;html=1;rounded=0;entryX=0.5;entryY=1;entryDx=0;entryDy=0;exitX=0.5;exitY=0;exitDx=0;exitDy=0;" parent="WJUggwcmlE_ixNE-Wr3F-1" source="WJUggwcmlE_ixNE-Wr3F-95" target="WJUggwcmlE_ixNE-Wr3F-94" edge="1">
          <mxGeometry width="50" height="50" relative="1" as="geometry">
            <mxPoint x="749.3600000000001" y="486" as="sourcePoint" />
            <mxPoint x="772" y="424.71000000000004" as="targetPoint" />
            <Array as="points" />
          </mxGeometry>
        </mxCell>
        <mxCell id="WJUggwcmlE_ixNE-Wr3F-93" value="" style="ellipse;whiteSpace=wrap;html=1;aspect=fixed;" parent="WJUggwcmlE_ixNE-Wr3F-1" vertex="1">
          <mxGeometry x="687" y="414" width="10" height="10" as="geometry" />
        </mxCell>
        <mxCell id="WJUggwcmlE_ixNE-Wr3F-94" value="" style="ellipse;whiteSpace=wrap;html=1;aspect=fixed;" parent="WJUggwcmlE_ixNE-Wr3F-1" vertex="1">
          <mxGeometry x="767" y="414" width="10" height="10" as="geometry" />
        </mxCell>
        <mxCell id="WJUggwcmlE_ixNE-Wr3F-95" value="" style="ellipse;whiteSpace=wrap;html=1;aspect=fixed;" parent="WJUggwcmlE_ixNE-Wr3F-1" vertex="1">
          <mxGeometry x="741.86" y="486" width="10" height="10" as="geometry" />
        </mxCell>
        <mxCell id="WJUggwcmlE_ixNE-Wr3F-96" value="" style="ellipse;whiteSpace=wrap;html=1;aspect=fixed;" parent="WJUggwcmlE_ixNE-Wr3F-1" vertex="1">
          <mxGeometry x="707" y="486" width="10" height="10" as="geometry" />
        </mxCell>
        <mxCell id="WJUggwcmlE_ixNE-Wr3F-97" value="PG 200" style="rounded=1;whiteSpace=wrap;html=1;" parent="WJUggwcmlE_ixNE-Wr3F-1" vertex="1">
          <mxGeometry x="180.38" y="580.5" width="75.25" height="22" as="geometry" />
        </mxCell>
        <mxCell id="WJUggwcmlE_ixNE-Wr3F-98" value="PG 300" style="rounded=1;whiteSpace=wrap;html=1;" parent="WJUggwcmlE_ixNE-Wr3F-1" vertex="1">
          <mxGeometry x="180.38" y="610.5" width="75.25" height="22" as="geometry" />
        </mxCell>
        <mxCell id="WJUggwcmlE_ixNE-Wr3F-99" value="PG 400" style="rounded=1;whiteSpace=wrap;html=1;" parent="WJUggwcmlE_ixNE-Wr3F-1" vertex="1">
          <mxGeometry x="265.5" y="550.5" width="75.25" height="22" as="geometry" />
        </mxCell>
        <mxCell id="WJUggwcmlE_ixNE-Wr3F-100" value="PG 500" style="rounded=1;whiteSpace=wrap;html=1;" parent="WJUggwcmlE_ixNE-Wr3F-1" vertex="1">
          <mxGeometry x="265.5" y="580.5" width="75.25" height="22" as="geometry" />
        </mxCell>
        <mxCell id="WJUggwcmlE_ixNE-Wr3F-101" value="PG 602" style="rounded=1;whiteSpace=wrap;html=1;" parent="WJUggwcmlE_ixNE-Wr3F-1" vertex="1">
          <mxGeometry x="350.25" y="550.5" width="75.25" height="22" as="geometry" />
        </mxCell>
        <mxCell id="WJUggwcmlE_ixNE-Wr3F-103" value="&lt;p style=&quot;line-height: 120%;&quot;&gt;PG All&lt;/p&gt;" style="rounded=1;whiteSpace=wrap;html=1;verticalAlign=middle;labelPosition=center;verticalLabelPosition=middle;align=center;spacingTop=-27;" parent="WJUggwcmlE_ixNE-Wr3F-1" vertex="1">
          <mxGeometry x="270" y="610.5" width="156" height="59.5" as="geometry" />
        </mxCell>
        <mxCell id="WJUggwcmlE_ixNE-Wr3F-102" value="PG 603" style="rounded=1;whiteSpace=wrap;html=1;" parent="WJUggwcmlE_ixNE-Wr3F-1" vertex="1">
          <mxGeometry x="350.75" y="580.5" width="75.25" height="22" as="geometry" />
        </mxCell>
        <mxCell id="WJUggwcmlE_ixNE-Wr3F-104" value="SG VLAN 4036" style="rounded=1;whiteSpace=wrap;html=1;" parent="WJUggwcmlE_ixNE-Wr3F-1" vertex="1">
          <mxGeometry x="273" y="635.5" width="75.25" height="31" as="geometry" />
        </mxCell>
        <mxCell id="WJUggwcmlE_ixNE-Wr3F-105" value="PG 100" style="rounded=1;whiteSpace=wrap;html=1;" parent="WJUggwcmlE_ixNE-Wr3F-1" vertex="1">
          <mxGeometry x="180.38" y="550.5" width="75.25" height="22" as="geometry" />
        </mxCell>
        <mxCell id="WJUggwcmlE_ixNE-Wr3F-106" value="" style="rounded=0;whiteSpace=wrap;html=1;" parent="WJUggwcmlE_ixNE-Wr3F-1" vertex="1">
          <mxGeometry x="360.75" y="476" width="10" height="10" as="geometry" />
        </mxCell>
        <mxCell id="WJUggwcmlE_ixNE-Wr3F-107" value="" style="rounded=0;whiteSpace=wrap;html=1;" parent="WJUggwcmlE_ixNE-Wr3F-1" vertex="1">
          <mxGeometry x="222" y="476" width="10" height="10" as="geometry" />
        </mxCell>
        <mxCell id="WJUggwcmlE_ixNE-Wr3F-108" value="Aruba&amp;nbsp;&lt;span style=&quot;caret-color: rgb(255, 255, 255);&quot;&gt;8325-48-it Border VSX&lt;/span&gt;" style="text;html=1;align=center;verticalAlign=middle;resizable=0;points=[];autosize=1;strokeColor=none;fillColor=none;" parent="WJUggwcmlE_ixNE-Wr3F-1" vertex="1">
          <mxGeometry x="677" y="324.03" width="180" height="30" as="geometry" />
        </mxCell>
        <mxCell id="WJUggwcmlE_ixNE-Wr3F-109" value="ESXi x 8" style="text;html=1;align=center;verticalAlign=middle;resizable=0;points=[];autosize=1;strokeColor=none;fillColor=none;" parent="WJUggwcmlE_ixNE-Wr3F-1" vertex="1">
          <mxGeometry x="389.5" y="700.5" width="70" height="30" as="geometry" />
        </mxCell>
        <mxCell id="WJUggwcmlE_ixNE-Wr3F-110" value="VDS" style="text;html=1;align=center;verticalAlign=middle;resizable=0;points=[];autosize=1;strokeColor=none;fillColor=none;fontColor=#6600CC;" parent="WJUggwcmlE_ixNE-Wr3F-1" vertex="1">
          <mxGeometry x="175" y="650" width="50" height="30" as="geometry" />
        </mxCell>
        <mxCell id="WJUggwcmlE_ixNE-Wr3F-111" value="x8" style="text;html=1;align=center;verticalAlign=middle;resizable=0;points=[];autosize=1;strokeColor=none;fillColor=none;" parent="WJUggwcmlE_ixNE-Wr3F-1" vertex="1">
          <mxGeometry x="363" y="510" width="40" height="30" as="geometry" />
        </mxCell>
        <mxCell id="WJUggwcmlE_ixNE-Wr3F-112" value="x8" style="text;html=1;align=center;verticalAlign=middle;resizable=0;points=[];autosize=1;strokeColor=none;fillColor=none;" parent="WJUggwcmlE_ixNE-Wr3F-1" vertex="1">
          <mxGeometry x="230" y="510" width="40" height="30" as="geometry" />
        </mxCell>
        <mxCell id="WJUggwcmlE_ixNE-Wr3F-35" value="" style="rounded=0;whiteSpace=wrap;html=1;" parent="WJUggwcmlE_ixNE-Wr3F-1" vertex="1">
          <mxGeometry x="139.14" y="200" width="10" height="10" as="geometry" />
        </mxCell>
        <mxCell id="WJUggwcmlE_ixNE-Wr3F-36" value="" style="rounded=0;whiteSpace=wrap;html=1;" parent="WJUggwcmlE_ixNE-Wr3F-1" vertex="1">
          <mxGeometry x="270" y="200" width="10" height="10" as="geometry" />
        </mxCell>
        <mxCell id="WJUggwcmlE_ixNE-Wr3F-37" value="Trunk" style="endArrow=none;html=1;rounded=0;exitX=0;exitY=0.5;exitDx=0;exitDy=0;" parent="WJUggwcmlE_ixNE-Wr3F-1" source="WJUggwcmlE_ixNE-Wr3F-36" edge="1">
          <mxGeometry x="-0.0071" width="50" height="50" relative="1" as="geometry">
            <mxPoint x="-4.860000000000014" y="275" as="sourcePoint" />
            <mxPoint x="149.14" y="205" as="targetPoint" />
            <mxPoint as="offset" />
          </mxGeometry>
        </mxCell>
        <mxCell id="19g9-5VXBfu_mteTfxoH-0" value="SG VLAN 4044" style="rounded=1;whiteSpace=wrap;html=1;" parent="WJUggwcmlE_ixNE-Wr3F-1" vertex="1">
          <mxGeometry x="350" y="635.5" width="73.5" height="31" as="geometry" />
        </mxCell>
      </root>
    </mxGraphModel>
  </diagram>
</mxfile>
